<svg width="332" height="465" viewBox="0 0 332 465" fill="none" xmlns="http://www.w3.org/2000/svg">
<path d="M188.671 36.525C169.647 48.3938 159.5 72.9188 164.551 94.7663C159.241 89.7263 149.521 93.3263 146.506 99.9975C143.491 106.669 145.516 114.589 148.925 121.069C161.817 145.549 193.216 159.803 197.007 187.219C199.302 203.88 188.649 221.441 172.797 227.078C165.789 229.575 157.452 230.306 152.784 236.1C144.29 246.619 155.214 263.696 148.486 275.419C143.255 284.531 130.542 285.319 120.102 284.171C109.662 283.024 97.6925 281.505 89.9075 288.559C80.1087 297.446 83.6187 313.388 88.3662 325.729C94.3175 341.22 101.034 356.453 105.849 372.338C112.182 393.206 115.186 414.953 117.009 436.699C117.357 440.884 117.875 445.519 120.991 448.331C122.802 449.974 125.232 450.716 127.606 451.313C147.541 456.263 168.455 453.068 188.907 451.076C226.212 447.431 263.922 447.893 301.126 452.438C304.659 452.865 309.012 452.978 310.914 449.963C312.354 447.679 311.589 444.709 310.734 442.144C305.514 426.506 298.381 411.499 289.561 397.571C282.744 386.794 274.509 376.32 263.112 370.594C251.716 364.856 236.529 365.07 227.461 374.036C231.871 357.611 224.412 338.273 209.292 330.476C194.184 322.68 172.966 328.789 165.642 344.134C165.305 313.174 179.997 284.284 194.33 256.845C213.624 219.878 252.222 163.796 252.222 145.931C252.222 141.488 243.346 146.325 238.914 146.516C243.605 136.076 256.542 125.423 246.237 120.81C241.074 118.504 241.85 117.356 236.731 119.741C242.401 109.481 259.254 94.44 253.752 88.95C245.54 84.5625 236.506 88.4888 231.905 93.8888C228.631 90.8738 234.346 89.9288 237.08 86.4075C239.814 82.8975 242.975 78.2738 240.747 74.415C238.374 70.32 232.366 71.1413 227.72 72.0413C223.074 72.9413 216.571 72.0525 216.054 67.35C215.401 61.4325 227.652 55.3575 222.804 51.9038C216.886 47.6738 208.482 49.3275 201.316 48.045C205.141 44.5013 211.835 39.7088 209.619 34.9838C205.602 26.4338 190.032 33.7238 188.671 36.525Z" fill="#FFAA33"/>
<path d="M108.391 147.473C91.3364 135.244 69.0951 130.496 48.5301 134.704C58.5089 135.053 62.5251 136.92 70.5464 138.034C78.5789 139.148 88.1301 144.019 94.3626 149.216C100.595 154.414 103.441 164.528 98.2326 170.749C84.9014 171.379 71.3789 166.789 61.1976 158.149C70.6026 153.401 82.8651 155.01 80.5701 163.076C78.7926 167.239 70.6701 164.179 71.2776 159.701C71.8851 155.224 85.7001 157.609 89.8401 159.431C93.9801 161.254 96.4101 165.608 97.8389 169.894C101.011 179.366 100.573 190.234 95.5776 198.896C90.5939 207.559 80.7951 213.555 70.8276 212.948C67.6551 207.671 75.8001 201.743 81.6164 203.768C87.4326 205.793 90.8639 211.598 95.0826 216.086C103.149 224.681 117.695 228.641 126.74 221.104C127.741 220.271 128.675 219.259 128.979 217.999C129.89 214.174 123.421 211.969 121.003 215.074C118.584 218.168 120.463 223.106 123.86 225.075C129.001 228.068 136.584 225.008 138.204 219.281C142.198 205.185 124.715 202.125 124.805 187.478C124.85 180.469 130.059 175.024 136.989 174C143.919 172.976 143.48 171.874 150.118 174.113C160.378 177.578 171.403 181.616 177.286 190.706C164.214 192.608 150.354 187.905 141.118 178.455C145.494 173.235 155.27 174.563 158.105 180.75C155.36 185.959 147.058 186.33 143.064 182.01C139.07 177.679 139.43 170.456 142.94 165.731C146.45 161.006 152.424 158.599 158.296 158.171C174.26 157.013 188.041 168.476 199.888 179.231C185.544 169.421 167.836 164.651 150.511 165.934C147.226 166.181 143.334 166.384 141.298 163.796C139.34 161.321 140.274 157.721 141.433 154.785C147.451 139.609 157.509 126.053 170.3 115.905C175.486 111.788 181.775 108.064 188.323 109.031C200.563 110.831 204.5 126.289 205.659 138.608C207.504 158.228 209.338 178.084 206.334 197.558C204.691 208.211 201.44 218.944 194.589 227.269C187.738 235.594 176.701 241.05 166.115 239.036C155.529 237.023 146.743 226.11 149.094 215.58C151.513 204.724 165.114 198.66 175.509 202.62C185.904 206.58 192.024 218.438 191.124 229.519C190.213 240.6 183.26 250.579 174.26 257.115C165.26 263.651 154.37 267.094 143.458 269.22C127.64 272.314 110.979 272.786 95.6451 267.814C80.3114 262.83 66.4626 251.861 60.5226 236.876C83.3039 232.084 107.694 235.403 128.371 246.079C131.206 247.541 134.165 249.353 135.391 252.3C138.238 259.151 130.239 265.373 123.388 268.219C114.376 271.954 104.375 275.07 94.9926 272.393C85.6101 269.704 78.0614 258.904 82.1789 250.061C85.7789 242.31 96.7139 240.105 104.33 243.986C111.946 247.868 116.458 256.125 118.404 264.45C120.586 273.743 120.024 283.901 115.524 292.328C111.024 300.743 102.249 307.099 92.7089 307.414C87.5901 307.583 81.9652 305.681 79.5014 301.193C77.0377 296.704 79.6589 289.74 84.7664 289.403C87.4551 289.223 89.9976 290.82 91.7526 292.856C96.3314 298.189 96.1402 306.964 91.3477 312.094C89.3902 314.186 86.8026 315.705 85.1714 318.068C79.8501 325.751 87.3089 335.426 91.5726 343.74C95.4651 351.334 96.6689 360.289 94.9139 368.636C94.4189 371.021 93.5751 373.508 91.6514 375.004C87.7926 377.985 81.7176 374.97 79.8389 370.47C77.9489 365.97 75.2939 357.398 79.9851 356.081C97.9064 351.075 94.5201 390.754 89.1089 408.551C83.7089 426.36 72.3014 441.626 61.1076 456.488C57.7214 460.988 52.0851 465.994 47.2814 463.058C45.3239 461.865 44.2776 459.66 43.3889 457.545C24.6914 413.546 27.7964 363.878 26.8064 316.076C25.3214 243.593 13.7114 170.996 21.3051 98.895C22.9476 83.3363 23.3301 65.3475 35.7051 54.9188C38.5289 52.5338 37.0439 62.1863 37.7189 65.82C43.9514 45.3113 65.8326 20.6288 76.2951 16.1625C80.9076 14.1938 76.1714 26.1863 76.1039 31.2038C91.5614 16.1175 127.258 -3.88498 133.141 2.67377C135.898 5.73377 128.754 9.64877 126.56 13.1363C141.759 10.4925 161.39 6.00377 172.618 12.8888C178.366 16.41 161.581 20.8313 158.026 26.5575C165.103 26.0513 172.179 25.5563 179.255 25.05C183.676 24.735 188.57 24.5663 192.001 27.3675C195.433 30.1688 195.185 37.0875 190.831 37.9088C198.245 41.1825 205.659 44.4675 213.084 47.7413C214.771 48.4838 216.751 49.6763 216.639 51.5213C216.56 52.905 215.3 53.8838 214.468 54.9975C211.329 59.25 214.771 65.4488 219.26 68.25C223.749 71.0513 229.25 72.1763 233.199 75.6863C237.148 79.1963 238.183 86.835 233.379 89.0288C239.566 87.9038 245.911 94.0913 244.921 100.301C244.246 104.588 240.86 107.963 239.555 112.114C238.25 116.265 241.186 122.295 245.315 120.945C240.995 126.829 236.563 134.648 240.286 140.925C241.31 142.646 242.874 144.064 243.504 145.954C244.089 147.731 243.74 149.678 243.358 151.511C236.968 181.706 219.586 209.46 195.208 228.394C191.709 223.174 195.365 215.265 201.328 213.285C207.29 211.305 214.085 214.309 218.011 219.225C221.926 224.141 223.423 230.565 223.906 236.831C224.446 243.728 223.704 251.175 219.35 256.541C214.996 261.908 206.075 263.899 201.08 259.106C198.56 256.688 197.503 253.133 196.85 249.69C190.303 215.108 214.456 180.323 208.539 145.628C204.95 124.568 190.213 106.421 171.808 95.565C153.403 84.7088 131.668 80.5575 110.304 80.2875C98.9526 80.1413 87.2301 81.1425 77.1276 86.3063C58.3964 95.8913 49.2389 117.48 44.6264 138.011C40.0139 158.543 38.2701 180.244 28.0439 198.638C25.3326 203.509 20.2251 208.684 15.0614 206.625C13.0026 205.804 11.5401 203.97 10.2689 202.159C3.1589 192.045 -1.07111 178.939 2.78764 167.194C4.83514 160.973 11.5401 154.875 17.3114 157.98C19.1901 158.993 20.4951 160.804 21.6089 162.626C36.2226 186.634 25.8276 217.144 22.5989 245.066C21.9126 250.95 21.6089 257.081 23.6676 262.628C25.8951 268.635 30.6201 273.304 35.2101 277.77C43.3214 285.656 51.4439 293.543 59.5551 301.44C65.8214 307.526 72.3689 313.793 80.6264 316.628C89.3339 319.609 98.9189 318.394 107.851 316.2C142.479 307.684 173.18 284.273 190.561 253.121C181.471 279.818 174.834 307.346 170.761 335.246C168.129 353.28 166.543 371.561 161.683 389.123C156.823 406.684 148.295 423.84 134.221 435.416C131.96 411.465 145.584 389.213 158.668 369.019C165.541 358.41 172.415 347.801 179.289 337.193C184.554 329.07 192.733 319.789 201.969 322.691C206.12 323.996 209.113 327.551 211.7 331.05C222.759 345.99 230.983 363.034 235.775 381C238.509 391.226 239.803 403.185 233.21 411.465C228.575 417.293 220.993 419.936 213.635 421.073C201.384 422.963 188.615 421.41 177.185 416.629C174.755 415.616 172.314 414.401 170.638 412.376C166.228 407.055 168.995 398.854 173.236 393.386C185.926 377.006 207.92 371.561 228.294 367.793C243.875 364.913 260.784 362.573 274.88 369.806C282.868 373.901 289.078 380.685 295.119 387.323C307.156 400.564 319.194 413.805 331.231 427.046" stroke="black" stroke-width="1.5" stroke-miterlimit="10" stroke-linejoin="round"/>
</svg>
