<svg width="1440" height="1024" viewBox="0 0 1440 1024" fill="none" xmlns="http://www.w3.org/2000/svg">
<path d="M-169 37.6964L-162.514 37.0283L-85.7015 47.4618L-67.7895 46.3191L-56.3881 41.5166L2.65405 31.1053L-48.6351 13.6144L-67.7895 1.23788L-103.589 -1.58496L-149.087 12.9214L-169 8.49076" stroke="#191919" stroke-opacity="0.8" stroke-width="2"/>
<path d="M-169 72.7078L-128.059 68.491L-111.233 70.7765L-67.7895 68.005L-40.1365 56.3569L16.754 46.3251L33.4211 41.4817L45.0952 41.7657L130.511 34.868L134.632 34.9951L137.751 33.9538L147.48 31.1054L141.601 24.741L134.632 24.5977L126.591 23.7634L53.1507 13.0892L33.4211 11.2421L-8.09064 -6.8013L-21.3325 -11.3171L-67.7895 -41.3352L-87.931 -42.9234L-121.268 -61.3157L-151.784 -77.037L-169 -131.703" stroke="#191919" stroke-opacity="0.8" stroke-width="2"/>
<path d="M9.9608 -431L13.1587 -412.497L33.4211 -369.545L47.4823 -351.419L50.6565 -338.579L42.003 -330.742L33.4211 -320.725L-13.9602 -289.424L-23.5313 -286.573L-67.7895 -268.286L-79.5505 -256.897L-83.1426 -246.158L-97.059 -219.43L-108.205 -190.642L-139.057 -153.737L-114.185 -111.37L-67.7895 -80.1893L-56.703 -71.4394L-41.7703 -61.3157L0.835528 -31.5601L33.4211 -17.3965L81.5964 -12.8864L87.3761 -12.0463L134.632 -7.14308L175.595 -6.30071L210.15 31.1053L152.965 47.8467L134.632 53.9669L110.414 53.2199L61.9267 57.1355L33.4211 56.4421L-7.27629 68.2683L-23.8849 71.1971L-67.7895 89.6906L-102.423 91.9001L-149.489 105.709L-169 107.719" stroke="#191919" stroke-opacity="0.8" stroke-width="2"/>
<path d="M32.9891 678.053L32.7166 678.696L33.4211 678.947L33.7386 678.343L33.6365 678.053L33.6264 677.865L33.4211 677.727L33.1848 677.837L32.9891 678.053Z" stroke="#191919" stroke-opacity="0.8" stroke-width="2"/>
<path d="M-169 786.026L-131 805.174L-149.53 770.474L-101.784 739.431L-67.7895 721.313L-26.296 715.943L-10.2435 678.052L9.53076 656.237L33.421 645.132L54.1682 659.107L55.1864 678.052L65.5092 707.354L33.421 768.477L29.834 767.198L31.9506 770.474L-34.557 800.82L-67.7895 805.708L-116.046 818.829L-126.45 862.895L-148.728 881.406L-169 888.767" stroke="#191919" stroke-opacity="0.8" stroke-width="2"/>
<path d="M64.5614 -431L88.5015 -388.876L87.8453 -381.302L98.4068 -338.579L65.7791 -309.031L33.4211 -271.262L17.4694 -260.724L-31.4171 -246.158L-58.0632 -237.276L-67.7895 -226.705L-88.6614 -172.796L-104.594 -153.737L-91.75 -131.857L-67.7895 -115.754L-35.8118 -90.5164L7.25993 -61.3158L22.0837 -50.963L33.4211 -46.0351L52.0666 -44.2895L112.573 -41.1727L134.632 -38.8838L159.763 -38.367L182.836 -61.3158L219.174 -76.536L235.842 -88.4393L253.855 -77.7647L272.727 -61.3158L262.408 -37.0571L258.93 10.0222L253.33 31.1052L244.138 38.6805L235.842 41.5856L218.393 47.0392L168.179 61.7397L134.632 72.9387L90.3165 71.5719L78.7583 72.5052L33.4211 71.4025L-9.88026 83.9854L-43.0911 100.973L-67.7895 111.376L-80.2261 112.17L-118.932 123.526L-156.458 134.979L-169 134.339" stroke="#191919" stroke-opacity="0.8" stroke-width="2"/>
<path d="M39.2109 770.474L122.792 781.286L134.632 780.681L141.416 776.669L145.255 770.474L143.516 762.361L134.632 762.095L115.062 752.604L39.2109 770.474Z" stroke="#191919" stroke-opacity="0.8" stroke-width="2"/>
<path d="M-169 746.015L-124.872 718.348L-96.0908 703.896L-67.7895 688.813L-57.4688 687.477L-53.4761 678.053L-14.1232 634.637L33.4211 612.538L74.7101 640.349L76.7364 678.053L90.8281 718.052L134.632 739.298L167.689 740.287L174.16 770.474L159.875 793.525L134.632 808.455L90.5747 810.705L75.3164 808.731L33.4211 812.002L-9.65981 823.555L-23.5474 822.495L-67.7895 829.002L-96.3895 836.778L-102.556 862.895L-137.345 891.801L-169 903.295" stroke="#191919" stroke-opacity="0.8" stroke-width="2"/>
<path d="M-169 154.052L-133.592 155.86L-87.9397 141.927L-67.7895 144.404L-55.7589 134.512L-52.5681 123.526L2.54795 95.3344L33.421 86.363L73.0628 87.3271L98.7988 90.8054L134.632 91.9106L183.394 75.6328L188.819 74.0443L235.842 59.348L258.197 51.5193L282.968 31.1053L293.526 -8.64113L309.48 -36.1381L320.191 -61.3158L277.035 -98.931L235.842 -123.342L197.727 -96.1212L151.581 -76.7934L134.632 -68.4072L125.411 -69.736L46.6618 -73.4067L33.421 -75.8686L-15.0787 -109.449L-48.2802 -135.922L-67.7895 -151.319L-69.3146 -152.344L-70.1321 -153.737L-69.118 -154.95L-67.7895 -158.381L-23.9015 -206.081L-2.74414 -213.133L33.421 -230.927L43.7334 -236.741L52.1794 -246.158L88.9353 -287.886L134.632 -329.307L142.827 -331.095L201.045 -338.579L149.524 -352.178L154.093 -413.228L146.24 -431" stroke="#191919" stroke-opacity="0.8" stroke-width="2"/>
<path d="M218.664 678.053L214.047 697.955L235.842 696.97L243.424 684.976L245.096 678.053L244.778 669.893L235.842 663.127L221.015 664.514L218.664 678.053Z" stroke="#191919" stroke-opacity="0.8" stroke-width="2"/>
<path d="M221.025 493.211L226.222 501.995L235.842 500.908L244.836 501.423L327.416 502.01L337.053 502.63L341.526 497.295L342.184 493.211L344.381 486.518L337.053 460.647L324.306 481.571L247.799 482.292L235.842 486.617L229.442 487.367L221.025 493.211Z" stroke="#191919" stroke-opacity="0.8" stroke-width="2"/>
<path d="M-169 707.781L-149.697 695.679L-114.595 678.053L-96.4718 651.861L-67.7895 618.607L-52.6665 599.441L1.04765 585.632L18.0126 571.561L33.4211 560.183L77.2791 545.582L85.9269 541.157L134.632 532.583L178.605 545.477L162.05 585.632L168.993 617.009L134.632 612.408L96.4106 643.151L98.2863 678.053L107.133 703.163L134.632 716.501L178.163 717.804L187.385 678.053L194.017 639.86L235.842 635.95L261.048 655.035L261.947 678.053L257.231 697.584L235.842 731.415L195.087 733.258L203.066 770.474L178.334 810.381L134.632 836.229L106.976 837.641L43.5012 853.69L33.4211 854.477L26.2954 856.388L-53.9539 850.261L-67.7895 852.295L-76.7334 854.728L-78.6618 862.895L-125.961 902.196L-169 917.824" stroke="#191919" stroke-opacity="0.8" stroke-width="2"/>
<path d="M178.334 -431L194.868 -393.584L235.842 -368.868L251.509 -352.886L266.567 -338.579L257.306 -318.979L235.842 -309.952L196.465 -302.622L176.78 -300.091L134.632 -290.894L110.046 -268.609L90.2701 -246.158L64.6736 -217.619L33.4211 -199.998L0.49866 -183.8L-28.9344 -153.737L4.35443 -127.194L33.4211 -107.069L75.0494 -99.329L93.969 -98.4471L134.632 -92.5877L178.064 -114.077L230.925 -153.737L231.505 -157.697L235.842 -159.486L240.892 -158.348L245.861 -153.737L303.435 -123.039L337.053 -94.0547L363.131 -85.1297L402.258 -94.1938L438.263 -89.6032L462.861 -83.7778L472.99 -61.3158L458.482 -42.853L438.263 -39.7391L406.654 -32.4513L358.193 -42.0111L337.053 -20.7674L317.379 13.1401L312.607 31.1052L272.257 64.3579L235.842 77.1102L197.973 88.9457L156.456 103.597L134.632 110.882L120.301 110.44L57.1047 101.899L33.4211 101.323L14.9762 106.683L-17.9524 123.526L-28.3997 159.495L-67.7895 191.882L-98.2432 188.138L-125.252 175.999L-169 173.766" stroke="#191919" stroke-opacity="0.8" stroke-width="2"/>
<path d="M163.833 493.211L189.09 535.903L235.842 530.62L279.548 533.121L293.24 533.218L337.053 536.036L357.389 511.781L360.382 493.211L370.372 462.785L358.309 420.2L414.915 400.79L362.905 377.183L337.053 365.262L324.359 389.199L319.972 400.79L283.203 444.038L235.842 461.169L204.741 464.81L163.833 493.211Z" stroke="#191919" stroke-opacity="0.8" stroke-width="2"/>
<path d="M-169 651.958L-141.855 610.419L-121.085 585.632L-104.929 551.717L-78.5185 503.008L-73.4432 493.211L-80.4771 481.625L-67.7895 472.64L-52.7801 479.505L-6.45437 456.798L33.4211 460.126L74.9333 455.303L93.8874 456.005L134.632 449.019L170.934 433.94L191.964 440.857L235.842 435.721L263.242 425.81L284.514 400.79L298.008 365.136L319.716 324.2L327.084 308.369L328.149 300.238L337.053 296.38L345.568 300.593L373.243 308.369L416.372 328.358L438.263 338.347L464.264 377.046L468.675 400.79L453.402 414.614L438.263 419.912L392.347 451.282L378.581 493.211L373.253 526.267L337.053 569.442L317.98 568.215L261.914 561.824L235.842 560.332L211.187 563.118L201.906 585.632L207.61 611.412L235.842 608.773L277.319 640.178L278.798 678.053L271.037 710.191L235.842 765.861L231.029 766.079L231.971 770.474L226.925 778.616L207.944 837.419L139.625 862.895L135.493 863.682L134.632 863.683L133.116 864.279L52.7915 880.583L33.4211 896.962L4.63207 889.184L-43.862 884.744L-67.7895 879.976L-112.199 914.763L-127.252 917.194L-169 932.352" stroke="#191919" stroke-opacity="0.8" stroke-width="2"/>
<path d="M210.428 -431L217.735 -414.465L235.842 -403.543L269.445 -369.264L301.74 -338.579L281.878 -296.541L235.842 -277.18L207.622 -271.927L143.731 -254.467L134.632 -252.482L131.156 -249.331L128.361 -246.158L99.9821 -214.518L86.417 -197.764L77.314 -193.818L33.4211 -169.069L22.5096 -163.701L12.7546 -153.737L23.7875 -144.94L33.4211 -138.27L54.6897 -134.315L99.6649 -121.807L134.632 -116.768L160.889 -129.76L192.847 -153.737L197.923 -188.363L235.842 -204.01L279.998 -194.058L323.448 -153.737L332.037 -149.157L337.053 -144.833L352.648 -139.496L394.813 -114.06L438.263 -108.521L479.311 -98.7993L496.214 -61.3158L472.003 -30.5059L438.263 -25.3095L388.937 -13.9371L341.394 31.1053L340.476 34.2311L337.053 37.9536L288.992 74.9919L286.317 77.1967L235.842 94.8725L212.464 102.179L151.973 123.526L155.177 142.288L150.004 201.91L154.254 215.947L143.858 224.373L134.632 231.472L100.865 246.781L63.1352 215.947L85.5327 171.112L84.9984 168.849L93.3446 123.526L41.1466 116.472L33.4211 116.284L27.4044 118.032L16.6633 123.526L10.6142 144.353L26.8216 209.921L18.0224 215.947L27.1741 221.652L33.4211 229.716L75.2416 270.18L66.2137 308.368L58.5304 331.297L33.4211 340.035L-7.44381 363.473L-43.4447 378.559L-67.7895 389.893L-79.1169 390.446L-100.124 400.789L-132.897 433.758L-169 429.038" stroke="#191919" stroke-opacity="0.8" stroke-width="2"/>
<path d="M119.836 678.053L123.437 688.275L134.632 693.704L152.352 694.234L156.106 678.053L160.153 654.748L134.632 651.331L119.073 663.845L119.836 678.053Z" stroke="#191919" stroke-opacity="0.8" stroke-width="2"/>
<path d="M504.446 1325L515.803 1303.39L539.474 1292.3L580.379 1269.93L587.633 1232.58L598.134 1193.72L640.684 1180.89L685.69 1181.26L697.552 1180.65L741.895 1181.06L774.376 1169.82L812.326 1168.26L843.105 1161.77L866.359 1161.39L923.331 1159.32L944.316 1158.97L964.108 1158.23L1028.96 1155.29L1045.53 1154.66L1059.12 1152.57L1089.59 1140.16L1107.1 1103.96L1146.74 1082.75L1185.99 1083.58L1214.1 1078.65L1247.95 1079.76L1253.88 1053.15L1259.78 1047.74L1254.43 1041.82L1247.95 1041.59L1236.85 1037.61L1163.16 1032.74L1146.74 1013.53L1116.61 1020.22L1077.73 1018.33L1045.53 1022.73L1020.7 1025.07L966.02 1027.92L944.316 1029.8L922.39 1027.72L859.779 1032.51L843.105 1030.09L822.009 1028.47L763.817 1027.72L741.895 1025.76L729.059 1036.02L701.442 1047.74L663.627 1068.69L640.684 1072.44L591.228 1095L578.452 1104.56L539.474 1132.01L534.714 1135.81L442.576 1136.22L438.263 1137.48L435.788 1137.9L434.607 1140.16L431.158 1146.65L401.312 1198.84L385.773 1232.58L369.068 1261.81L337.053 1275.84L286.615 1278.94L253.788 1325" stroke="#191919" stroke-opacity="0.8" stroke-width="2"/>
<path d="M-169 986.074L-120.736 1003.66L-114.008 1005.53L-67.7895 1020.23L-40.6434 1022.95L-26.7829 1047.74L2.77889 1075.72L19.3611 1127.32L26.0168 1140.16L-22.8346 1181.21L-67.7895 1209.71L-86.5074 1215.49L-120.855 1232.58L-149.818 1250.09L-169 1253.48" stroke="#191919" stroke-opacity="0.8" stroke-width="2"/>
<path d="M242.687 -431L287.348 -385.612L333.451 -341.868L336.912 -338.579L336.806 -338.354L337.053 -337.486L363.1 -269.943L372.803 -246.158L368.059 -217.845L377.363 -190.547L374.736 -153.737L412.992 -130.66L438.263 -127.438L477.148 -118.229L515.404 -153.737L517.032 -174.23L539.474 -192.112L571.793 -183.25L598.34 -192.403L640.684 -188.75L668.673 -179.295L721.619 -153.737L670.409 -126.594L640.684 -114.36L597.507 -114.309L573.236 -122.906L539.474 -122.816L505.412 -92.4194L519.437 -61.3158L485.524 -18.1588L438.263 -10.8799L401.554 -2.4163L366.17 31.1053L360.014 52.073L337.053 77.0429L309.447 98.3178L255.189 105.86L235.842 112.635L226.956 115.412L203.963 123.526L208.264 148.71L235.842 201.387L244.502 208.039L253.737 215.947L267.133 244.521L235.842 224.726L187.243 263.99L162.355 283.052L134.632 304.384L131.716 305.706L131.086 308.368L129.523 313.033L134.632 318.072L166.956 371.272L190.864 400.789L223.93 411.667L235.842 410.273L243.28 407.582L249.055 400.789L256.034 382.351L269.272 338.895L283.48 308.368L289.204 264.675L337.053 243.943L382.815 266.58L396.805 270.511L438.263 285.613L460.044 288.479L484.83 308.368L499.795 344.601L497.02 362.022L504.222 400.789L471.098 430.773L438.263 442.262L406.348 464.067L396.779 493.211L389.62 537.629L391.405 542.843L368.374 585.632L355.941 602.88L337.053 601.655L294.118 638.847L295.648 678.053L284.843 722.798L280.461 729.729L262.494 770.474L266.586 798.547L250.62 849.401L256.28 862.895L241.588 868.142L235.842 869.818L228.237 869.839L157.075 883.389L134.632 883.432L95.1484 898.949L76.9495 902.643L33.4211 939.448L8.74289 932.781L-28.2391 919.2L-67.7895 911.318L-93.7245 931.633L-153.665 941.313L-169 946.881" stroke="#191919" stroke-opacity="0.8" stroke-width="2"/>
<path d="M646.145 1325L645.964 1320.18L640.684 1316.47L598.057 1271.5L605.616 1232.58L612.558 1206.9L640.684 1198.41L677.771 1198.71L706.996 1200.71L741.895 1201.03L790.237 1184.3L794.975 1184.11L843.105 1173.95L879.468 1173.36L909.135 1172.28L944.316 1171.69L977.498 1170.46L1014.17 1168.79L1045.53 1167.61L1071.26 1163.66L1128.93 1140.16L1134.39 1128.88L1146.74 1122.27L1165.88 1122.67L1243.1 1140.16L1247 1141.02L1232.94 1218.87L1238.43 1232.58L1238.76 1240.96L1247.95 1250.88L1254.19 1238.28L1254.28 1232.58L1253.23 1227.75L1248.21 1140.4L1248.17 1140.16L1248.34 1139.8L1265.32 1063.6L1282.62 1047.74L1266.93 1030.4L1247.95 1029.74L1215.44 1018.05L1181.68 1015.82L1146.74 974.928L1118.36 981.232L1087.13 993.311L1045.53 998.993L997.136 1003.55L992.438 1003.79L944.316 1007.96L895.702 1003.34L891.355 1003.68L843.105 996.665L801.326 993.466L780.154 990.253L741.895 986.842L706.321 1015.25L650.151 1039.09L640.684 1043.94L637.445 1044.78L625.679 1047.74L563.775 1069.93L539.474 1087.04L508.43 1111.81L469.116 1111.98L438.263 1121L420.553 1123.99L412.103 1140.16L387.579 1186.3L387.483 1186.53L366.276 1232.58L356.256 1250.11L337.053 1258.53L306.583 1260.4L281.527 1232.58L270.606 1200.83L271.594 1172.81L265.048 1140.16L260.72 1117.44L235.842 1097.75L213.918 1120.14L206.324 1140.16L203.845 1169.38L204.945 1204.37L201.929 1232.58L204.178 1261.49L218.403 1309.08L220.217 1325" stroke="#191919" stroke-opacity="0.8" stroke-width="2"/>
<path d="M831.027 862.895L828.39 876.332L843.105 893.29L857.638 876.165L860.227 862.895L853.922 853.017L843.105 847.594L833.241 853.887L831.027 862.895Z" stroke="#191919" stroke-opacity="0.8" stroke-width="2"/>
<path d="M-169 1278.75L-126.63 1271.27L-77.8625 1241.78L-67.7895 1237.7L-64.9759 1235.15L-63.584 1232.58L-4.91528 1197.57L33.4211 1165.79L52.9138 1157.96L59.203 1140.16L55.8422 1119.68L39.2128 1053.03L38.2185 1047.74L38.6163 1042.99L51.6867 971.995L52.8332 955.316L94.7165 918.867L134.632 903.18L178.657 903.097L195.283 899.931L235.842 899.816L266.487 890.878L332.05 867.463L337.053 865.836L339.154 864.814L341.599 862.895L339.553 860.612L337.053 857.516L298.41 805.761L293.266 770.474L305.837 741.969L305.553 706.817L312.499 678.053L311.591 654.803L337.053 632.747L383.378 635.75L407.706 678.053L422.957 692.03L438.263 691.941L449.411 688.232L458.605 678.053L467.686 651.185L438.263 603.396L411.597 609.982L429.149 585.632L432.153 580.052L410.959 518.144L414.977 493.211L420.348 476.852L438.263 464.612L488.793 446.931L506.059 431.302L539.474 401.266L539.873 401.154L540.076 400.789L542.153 398.343L573.642 339.569L602.112 343.59L640.684 331.982L656.5 322.811L668.636 308.368L695.996 266.456L741.895 249.928L769.742 241.376L830.075 227.846L843.105 224.353L847.613 220.064L850.2 215.947L848.235 211.263L843.105 208.471L826.552 200.831L773.863 186.755L741.895 149.712L704.234 181.557L675.659 184.01L640.684 195.741L617.205 194.507L567.444 215.947L561.235 235.819L539.474 253.687L514.596 238.665L477.989 252.223L438.263 246.997L413.957 238.143L374.194 215.947L359.914 195.071L337.053 150.205L321.949 137.319L303.814 123.526L332.661 119.516L337.053 116.132L379.553 69.915L390.947 31.1053L414.17 9.10448L438.263 3.54967L474.562 -2.04078L526.216 31.1053L528.757 40.891L539.474 52.9754L552.561 43.0557L569.967 31.1053L567.375 5.6271L558.17 -44.2432L556.175 -61.3158L616.907 -83.0279L640.684 -83.0559L684.028 -100.896L694.389 -104.696L741.895 -128.088L755.176 -141.609L758.518 -153.737L752.754 -163.653L741.895 -177.796L692.474 -198.866L690.924 -199.614L640.684 -216.585L611.094 -219.138L566.604 -246.158L553.217 -258.708L539.474 -277.055L489.332 -292.791L441.353 -338.579L440.757 -340.857L438.263 -348.271L433.987 -342.483L377.044 -375.097L337.053 -370.702L304.669 -401.429L275.572 -431" stroke="#191919" stroke-opacity="0.8" stroke-width="2"/>
<path d="M226.82 308.368L230.195 313.525L235.842 320.246L238.673 310.953L239.876 308.368L240.424 304.184L235.842 301.286L231.727 304.61L226.82 308.368Z" stroke="#191919" stroke-opacity="0.8" stroke-width="2"/>
<path d="M480.392 585.632L523.446 600.268L539.474 592.789L545.609 591.234L553.714 585.632L548.513 577.377L539.474 574.903L527.848 575.016L480.392 585.632Z" stroke="#191919" stroke-opacity="0.8" stroke-width="2"/>
<path d="M673.686 1325L672.596 1295.86L640.684 1273.45L619.917 1251.54L623.6 1232.58L626.981 1220.07L640.684 1215.93L658.753 1216.08L729.092 1220.89L741.895 1221.01L762.302 1213.94L801.79 1194.85L843.105 1186.13L892.577 1185.33L894.938 1185.25L944.316 1184.42L990.888 1182.69L999.376 1182.3L1045.53 1180.56L1083.39 1174.74L1129.39 1156L1146.74 1151.67L1184.13 1174.3L1205.39 1179.02L1203.11 1191.64L1219.51 1232.58L1220.52 1257.62L1247.95 1287.24L1266.6 1249.62L1266.86 1232.58L1263.74 1218.16L1259.88 1151.06L1258.03 1140.16L1265.64 1124.01L1276.77 1074.06L1305.47 1047.74L1279.44 1018.98L1247.95 1017.88L1198.79 1000.21L1155.37 955.316L1154.25 948.456L1146.74 940.836L1129.93 939.968L1109.36 955.316L1064.52 972.663L1045.53 975.257L1021.18 977.549L975.132 983.456L944.316 986.125L913.755 983.223L853.429 964.743L843.105 963.242L835.096 962.629L786.919 955.316L756.276 942.183L741.895 950.522L738.127 951.875L734.877 955.316L685.354 996.107L640.684 1018.98L616.149 1025.33L544.197 1043.42L539.474 1044.63L537.177 1045.64L535.903 1047.74L485.372 1090.75L438.263 1104.53L405.318 1110.07L389.599 1140.16L372.429 1172.46L353.838 1217.25L346.779 1232.58L343.444 1238.42L337.053 1241.22L326.911 1241.84L318.572 1232.58L310.106 1207.97L294.441 1179.07L286.639 1140.16L279.111 1100.65L235.842 1066.4L197.71 1105.34L184.502 1140.16L180.916 1182.42L178.736 1192.31L174.43 1232.58L177.473 1271.7L175.668 1287.53L179.938 1325" stroke="#191919" stroke-opacity="0.8" stroke-width="2"/>
<path d="M811.104 862.895L804.118 898.496L843.105 943.426L881.609 898.055L888.468 862.895L871.764 836.725L843.105 822.357L816.971 839.03L811.104 862.895Z" stroke="#191919" stroke-opacity="0.8" stroke-width="2"/>
<path d="M1411.8 955.316L1430.29 973.647L1450.37 976.788L1465.74 969.352L1484.41 955.316L1467.88 939.325L1459.04 870.815L1455.74 862.895L1454.23 859.368L1450.37 852.227L1446.53 859.388L1445.55 862.895L1442.14 870.408L1433.58 939.981L1411.8 955.316Z" stroke="#191919" stroke-opacity="0.8" stroke-width="2"/>
<path d="M542.102 -431L542.836 -427.929L548.265 -346.607L551.153 -338.579L581.867 -299.868L588.538 -290.961L636.329 -246.158L638.945 -244.57L640.684 -244.419L643.706 -243.399L717.085 -223.503L741.895 -212.926L768.61 -178.132L782.791 -153.737L774.568 -123.901L741.895 -90.6366L721.034 -80.3647L669.093 -61.3158L657.739 -45.7423L658.706 14.649L653.666 31.1053L659.715 48.4834L640.684 54.2892L597.653 84.2323L546.263 123.526L603.432 157.544L640.684 159.502L669.497 149.837L699.575 123.526L713.354 97.4643L741.895 101.346L759.027 107.882L777.15 123.526L807.781 155.783L843.105 172.085L873.199 188.467L884.728 215.947L869.554 240.099L843.105 265.263L806.612 275.045L760.989 290.933L741.895 296.796L732.806 300.069L727.388 308.368L689.744 353.168L640.684 381.617L624.893 386.37L612.651 400.789L588.009 445.11L539.474 458.682L520.419 475.81L449.357 483.081L438.263 486.962L434.349 489.636L433.176 493.211L432.298 498.658L438.263 516.083L462.892 515.701L505.517 524.218L539.474 523.889L587.449 537.019L597.474 532.668L595.336 544.221L621.426 585.632L574.78 617.872L539.474 626.822L502.344 644.147L490.884 678.053L467.099 704.384L438.263 713.978L398.669 714.208L359.218 678.053L351.586 664.782L337.053 663.84L329.065 670.759L329.35 678.053L327.171 687.076L327.775 762.002L324.039 770.474L325.568 780.961L337.053 796.343L367.981 834.652L393.294 862.895L363.056 886.64L337.053 899.283L291.804 913.997L276.875 917.847L235.842 929.813L208.001 929.893L170.172 922.861L134.632 922.928L109.836 932.673L83.8173 955.316L80.8409 998.618L79.5535 1005.61L76.0207 1047.74L84.6087 1093.42L84.7272 1094.59L92.2075 1140.16L77.8672 1180.74L33.4211 1198.6L13.9158 1214.77L-15.9344 1232.58L-33.0966 1264.26L-67.7895 1295.67L-90.0369 1304.68L-140.52 1298.99L-169 1304.02" stroke="#191919" stroke-opacity="0.8" stroke-width="2"/>
<path d="M390.121 123.526L406.445 152.581L438.263 196.506L483.921 165.219L530.52 123.526L514.191 100.439L491.53 74.8853L480.159 31.1052L455.554 15.3162L438.263 17.9792L426.786 20.6252L415.724 31.1052L407.468 59.2255L410.08 97.7905L390.121 123.526Z" stroke="#191919" stroke-opacity="0.8" stroke-width="2"/>
<path d="M683.046 585.631L722.066 603.738L741.895 610.982L755.117 597.706L758.512 585.631L760.865 568.308L741.895 552.937L708.349 554.999L683.046 585.631Z" stroke="#191919" stroke-opacity="0.8" stroke-width="2"/>
<path d="M701.227 1325L699.788 1286.55L741.895 1253.07L752.391 1242.16L755.06 1232.58L812.625 1204.75L843.105 1198.31L881.305 1197.7L906.209 1197.78L944.316 1197.14L984.771 1195.64L1004.43 1195.06L1045.53 1193.5L1095.53 1185.82L1097.7 1184.94L1146.74 1172.7L1186.17 1196.57L1200.6 1232.58L1202.27 1274.29L1247.95 1323.6L1279.02 1260.95L1279.44 1232.58L1274.24 1208.57L1271.55 1161.71L1267.89 1140.16L1282.93 1108.21L1288.21 1084.51L1328.31 1047.74L1291.95 1007.56L1247.95 1006.02L1208.1 991.699L1172.92 955.316L1169.52 934.513L1146.74 911.401L1096.46 908.804L1047.89 862.895L1046.3 862.186L1045.53 861.376L1043.92 861.424L1041.61 862.895L1039.61 868.293L1027.83 939.157L1017.18 955.316L953.291 963.511L944.316 964.289L935.415 963.443L908.884 955.316L921.366 934.36L910.726 893.568L916.71 862.895L889.606 820.433L843.105 797.12L800.701 824.173L791.181 862.895L783.692 901.062L741.895 925.298L718.301 933.771L697.953 955.316L667.843 980.117L640.684 994.025L594.853 1005.89L581.677 1009.2L539.474 1019.99L518.955 1029L507.573 1047.74L471.703 1078.27L438.263 1088.05L390.084 1096.16L367.095 1140.16L357.278 1158.63L337.053 1207.36L312.69 1162.4L308.229 1140.16L302.159 1108.29L335.583 1049.08L332.747 1047.74L257.642 1027.83L235.842 1017.93L220.254 1033.5L214.895 1047.74L178.69 1087.97L177.546 1100.97L162.681 1140.16L160.664 1163.93L148.261 1220.13L146.931 1232.58L147.871 1244.67L139.185 1320.84L139.659 1325" stroke="#191919" stroke-opacity="0.8" stroke-width="2"/>
<path d="M1368.35 955.316L1407.68 994.301L1450.37 1000.98L1483.06 985.167L1522.77 955.316L1487.61 921.307L1484.04 893.645L1471.22 862.895L1465.36 849.204L1450.37 821.479L1435.46 849.28L1431.66 862.895L1418.42 892.064L1414.65 922.702L1368.35 955.316Z" stroke="#191919" stroke-opacity="0.8" stroke-width="2"/>
<path d="M125.212 1140.16L120.725 1152.86L134.631 1171.63L140.411 1145.44L140.859 1140.16L144.16 1131.46L150.274 1062.02L163.127 1047.74L178.057 1008.08L178.937 995.773L216.64 955.316L148.501 942.65L134.631 942.676L124.955 946.48L114.801 955.316L113.473 974.637L115.303 1030.09L113.823 1047.74L116.872 1063.95L123.551 1130.04L125.212 1140.16Z" stroke="#191919" stroke-opacity="0.8" stroke-width="2"/>
<path d="M1278.53 1325L1279.63 1296.07L1291.43 1272.28L1292.02 1232.58L1284.75 1198.97L1283.22 1172.37L1277.75 1140.16L1299.22 1094.56L1349.16 1048.84L1350.19 1048.68L1357.83 1047.74L1420.55 1020.51L1450.37 1025.18L1500.38 1000.98L1507.11 995.922L1551.58 964.196L1557.74 960.942L1563.7 955.316L1558.3 949.18L1551.58 950.136L1504.59 905.802L1486.69 862.895L1476.49 839.04L1450.37 790.73L1424.39 839.172L1417.77 862.895L1397.67 907.194L1349.16 945.932L1339.54 946.531L1334.42 955.316L1292.18 995.708L1247.95 994.164L1217.42 983.191L1190.46 955.316L1184.79 920.568L1146.74 881.966L1126.97 880.945L1107.87 862.895L1066.05 844.151L1045.53 822.748L1002.96 824.021L949.522 858.141L944.316 858.863L924.559 788.515L846.526 773.598L843.105 771.883L837.985 775.149L749.874 777.76L779.759 828.319L771.258 862.895L766.797 885.634L741.895 900.073L698.475 915.667L661.028 955.316L650.332 964.126L640.684 969.067L619.67 974.505L573.719 986.587L539.474 995.339L500.733 1012.36L479.242 1047.74L458.034 1065.79L438.263 1071.57L406.26 1076.96L377.98 1047.74L366.6 1020.76L337.053 992.972L307.093 982.674L254.225 955.316L318.815 938.661L337.053 932.731L386.958 908.466L396.958 900.613L438.263 869.612L443.179 867.383L445.524 862.895L443.406 858.199L438.263 855.796L395.983 809.083L364.337 770.474L400.766 736.233L438.263 736.015L484.788 720.537L523.163 678.053L527.01 666.671L539.474 660.855L565.544 654.247L614.292 653.952L640.684 639.228L669.666 651.588L736.588 673.207L741.895 675.146L788.585 628.267L800.571 585.632L805.265 551.078L843.105 531.098L870.915 518.605L871.623 493.211L864.082 474.056L843.105 458.062L795.745 449.963L785.037 453.815L741.895 409.381L738.661 403.742L737.401 400.789L740.426 399.448L741.895 397.418L785.62 348.296L836.37 308.368L841.246 306.67L843.105 306.172L891.495 260.135L919.256 215.947L903.693 178.853L908.504 156.228L876.113 153.668L843.105 135.699L834.251 131.612L826.572 123.526L783.043 85.9516L741.895 70.2532L704.581 65.1785L692.722 31.1053L703.467 -3.98546L741.895 -47.724L751.203 -52.8164L758.377 -61.3158L795.698 -104.606L794.942 -109.756L807.063 -153.737L784.467 -192.611L746.77 -241.706L743.534 -246.158L742.916 -247.091L741.895 -249.903L733.004 -254.277L680.521 -282.535L640.684 -298.234L618.841 -318.632L603.015 -338.579L587.304 -382.256L586.944 -387.652L576.579 -431" stroke="#191919" stroke-opacity="0.8" stroke-width="2"/>
<path d="M419.657 1047.74L428.386 1056.76L438.263 1055.09L444.365 1053.31L450.911 1047.74L466.668 1021.8L471.366 985.544L507.019 984.952L539.474 970.693L552.631 967.33L598.327 955.316L612.881 929.927L640.684 916.309L665.529 885.582L720.319 882.597L741.895 874.848L749.901 870.205L751.336 862.895L754.069 851.778L741.895 831.183L692.91 815.204L674.703 801.538L640.684 778.883L634.349 776.258L629.265 770.474L578.822 734.543L539.474 724.768L519.931 752.628L459.662 750.933L438.263 758.052L424.746 758.131L411.614 770.474L423.022 784.391L438.263 801.23L482.931 822.106L501.336 862.895L480.961 901.885L438.263 921.242L417.782 936.613L370.432 955.316L403.476 987.081L408.001 1020.1L419.657 1047.74Z" stroke="#191919" stroke-opacity="0.8" stroke-width="2"/>
<path d="M842.629 585.632L842.465 586.216L843.105 590.735L845.307 587.643L844.524 585.632L844.421 584.431L843.105 585.022L842.682 585.245L842.629 585.632Z" stroke="#191919" stroke-opacity="0.8" stroke-width="2"/>
<path d="M1310.34 1325L1311.65 1290.75L1303.98 1273.83L1304.6 1232.58L1295.25 1189.38L1294.89 1183.02L1287.62 1140.16L1306.12 1100.85L1349.16 1061.45L1361.98 1059.45L1449.32 1048.69L1450.37 1048.54L1451.5 1048.77L1455.22 1047.74L1522.16 1020.87L1551.58 999.878L1582.49 983.546L1612.38 955.316L1585.3 924.526L1551.58 929.326L1515.8 895.567L1502.17 862.895L1487.62 828.876L1461.58 780.708L1456.5 770.474L1454.65 766.56L1450.37 761.768L1445.26 765.807L1443.44 770.474L1439.34 780.543L1413.32 829.063L1403.88 862.895L1387.85 898.227L1349.16 929.124L1322.31 930.797L1308.03 955.316L1278.68 983.379L1247.95 982.306L1226.74 974.682L1208.01 955.316L1201.01 912.455L1206.05 901.155L1176.23 862.895L1153.8 856.446L1146.74 855.635L1126.38 844.303L1085.8 826.117L1045.53 784.121L1030.08 784.583L1003.96 770.474L973.055 744.23L946.403 679.959L945.287 678.053L945.473 676.996L971.084 610.075L973.814 585.632L966.561 565.318L944.316 539.279L911.37 523.295L912.209 493.211L894.189 447.437L894.224 446.531L891.204 444.711L843.105 408.037L836.42 406.894L829.97 400.789L835.962 394.266L843.105 388.518L885.203 346.81L897.026 308.368L920.024 286.186L944.316 238.901L952.786 223.682L956.872 215.947L966.582 195.615L975.666 152.154L1010.38 123.526L963.216 106.268L944.316 97.7904L908.444 90.7699L880.57 89.3148L843.105 78.3157L816.078 55.7853L757.046 44.941L741.895 39.1605L734.217 38.1164L731.777 31.1053L733.987 23.8848L741.895 14.8849L786.207 -9.35887L795.044 -12.7816L804.689 -26.2358L834.301 -61.3158L838.179 -65.8139L827.377 -139.375L831.336 -153.737L818.021 -176.642L801.5 -208.166L773.885 -246.158L761.826 -264.358L741.895 -319.239L728.13 -326.01L690.806 -338.579L651.804 -348.733L640.684 -360.901L616.365 -408.793L611.055 -431" stroke="#191919" stroke-opacity="0.8" stroke-width="2"/>
<path d="M1754 969.499L1732.27 975.157L1657.14 959.285L1652.79 966.315L1609.26 1007.98L1583.22 1018.85L1551.58 1035.56L1544.09 1040.9L1527.06 1047.74L1468.25 1064.07L1450.37 1060.4L1433.85 1062.82L1373.78 1070.22L1349.16 1074.06L1313.01 1107.15L1297.48 1140.16L1304.41 1181.02L1309.31 1196.19L1317.19 1232.58L1316.74 1262.18L1342.39 1318.82L1342.16 1325" stroke="#191919" stroke-opacity="0.8" stroke-width="2"/>
<path d="M1754 848.083L1719.1 831.029L1691.48 827.569L1687.44 802.118L1668.71 770.474L1665.12 759.218L1652.79 753.205L1642.07 760.684L1636.05 770.474L1630.61 790.723L1625.56 838.026L1615.64 862.895L1594.8 902.363L1551.58 908.515L1527.01 885.332L1517.65 862.895L1498.75 818.711L1494.42 810.703L1474.46 770.474L1467.21 755.09L1450.37 736.254L1430.28 752.131L1423.15 770.474L1407.02 810.055L1402.25 818.955L1389.99 862.895L1378.03 889.26L1349.16 912.316L1305.08 915.062L1281.63 955.316L1265.18 971.05L1247.95 970.448L1236.06 966.174L1225.56 955.316L1221.63 931.286L1247.95 872.254L1261.88 875.615L1252.67 862.895L1250.84 860.255L1247.95 858.734L1242.41 857.842L1173.85 838.133L1146.74 835.016L1102.82 810.574L1062.86 770.474L1061.78 755.631L1045.53 726.509L1018.35 702.871L1003.81 678.053L1009.6 645.245L1006.94 620.869L1010.87 585.632L994.509 539.797L991.585 536.374L960.122 493.211L960.541 478.395L963.199 418.033L963.672 400.789L958.734 387.623L954.666 317.82L952.378 308.368L960.425 293.658L983.673 251.886L1002.66 215.947L1015.68 188.691L1045.53 162.991L1059.74 136.507L1058.65 123.526L1058.04 112.102L1045.53 95.5424L996.352 76.0086L990.362 73.1532L944.316 52.5001L925.021 48.724L882.822 31.1053L886.19 -8.23758L890.835 -17.731L892.434 -61.3158L886.121 -100.596L881.948 -118.267L875.519 -153.737L856.771 -166.216L843.105 -180.248L819.743 -224.824L804.237 -246.158L780.736 -281.626L769.061 -313.772L757.409 -338.579L756.586 -351.994L741.895 -362.872L691.987 -385.427L647.263 -431" stroke="#191919" stroke-opacity="0.8" stroke-width="2"/>
<path d="M1243.1 955.316L1245.37 957.666L1247.95 958.59L1251.68 958.721L1255.24 955.316L1263.52 941.098L1247.95 937.341L1242.25 950.116L1243.1 955.316Z" stroke="#191919" stroke-opacity="0.8" stroke-width="2"/>
<path d="M1358.23 1325L1356.05 1318.7L1349.16 1293.95L1329.5 1250.53L1329.77 1232.58L1324.99 1210.51L1312.95 1173.22L1307.34 1140.16L1319.91 1113.45L1349.16 1086.67L1385.58 1080.99L1418.38 1076.95L1450.37 1072.26L1485.01 1079.37L1530.89 1066.63L1551.58 1089.12L1575.09 1069.21L1624.19 1047.74L1643.82 1039.55L1652.79 1030.96L1682.69 982.617L1716.32 989.722L1754 979.91" stroke="#191919" stroke-opacity="0.8" stroke-width="2"/>
<path d="M1754 831.059L1710.78 809.939L1687.42 770.474L1679.6 745.99L1652.79 732.911L1629.47 749.18L1616.38 770.474L1604.55 814.52L1604.13 818.463L1586.42 862.895L1575.08 884.359L1551.58 887.705L1538.22 875.097L1533.13 862.895L1521.3 835.249L1510.87 807.649L1492.42 770.474L1479.78 743.621L1450.37 710.741L1415.31 738.456L1402.86 770.474L1388.3 806.214L1385.31 829.878L1376.11 862.895L1368.21 880.293L1349.16 895.507L1310.83 897.896L1285.48 862.895L1270.94 841.896L1247.95 829.799L1203.93 822.7L1193.91 819.819L1146.74 814.398L1116.85 797.764L1089.65 770.474L1086.91 732.679L1067.75 698.351L1064.19 678.053L1062.4 662.642L1050.67 590.329L1050.08 585.632L1049.92 581.617L1045.53 554.652L1039.67 498.554L1035.78 493.211L1036.02 484.534L1036.9 408.663L1037.12 400.79L1032.74 389.115L1008.07 342.575L999.786 308.369L1015.02 280.514L1045.53 221.683L1048.19 218.381L1050.55 215.947L1049.33 212.476L1080.12 155.114L1077.47 123.526L1075.97 95.7255L1045.53 55.4307L1026.96 48.0566L991.403 31.1053L979.812 -1.30867L956.368 -50.3097L951.719 -61.3157L949.554 -66.0991L944.316 -101L939.278 -149.137L938.445 -153.737L883.301 -190.442L843.105 -231.715L837.986 -241.483L834.588 -246.158L821.539 -265.851L798.19 -297.564L778.924 -338.579L776.96 -370.599L741.895 -396.562L716.667 -407.963L694.059 -431" stroke="#191919" stroke-opacity="0.8" stroke-width="2"/>
<path d="M848.269 -431L847.327 -427.145L843.105 -421.271L797.908 -379.851L800.44 -338.579L813.247 -311.313L843.105 -270.761L857.643 -259.433L873.067 -246.158L906.974 -212.059L944.316 -185.753L965.049 -172.67L1008.66 -153.737L1016.68 -127.4L1045.53 -77.5101L1048.93 -64.4201L1049.8 -61.3158L1052.21 -55.217L1063.32 14.8577L1076.18 31.1052L1083.99 66.2325L1093.9 79.3493L1096.28 123.526L1099.87 166.32L1120.91 192.366L1129.19 215.947L1089.94 256.505L1055.23 299.509L1047.89 308.368L1053.48 315.63L1087.24 362.694L1127.61 400.789L1126.72 419.067L1122.54 471.113L1121.53 493.21L1122.61 515.239L1119.22 560.5L1120.21 585.632L1122.93 607.367L1127.09 660.109L1129.17 678.053L1131.6 691.878L1114.3 740.857L1116.45 770.474L1130.88 784.954L1146.74 793.779L1175.93 797.135L1219.66 796.302L1247.95 800.864L1291.05 823.538L1318.3 862.895L1330.58 879.856L1349.16 878.699L1358.39 871.326L1362.22 862.895L1366.68 846.894L1373.51 792.709L1382.57 770.474L1400.33 724.78L1450.37 685.227L1492.34 732.151L1510.38 770.474L1523.23 796.362L1546.7 858.438L1548.6 862.895L1549.43 864.862L1551.58 866.894L1555.37 866.355L1557.19 862.895L1560.41 854.831L1587.82 803.568L1596.7 770.474L1616.87 737.675L1652.79 712.616L1694.09 732.761L1706.13 770.474L1722.93 798.849L1754 814.035" stroke="#191919" stroke-opacity="0.8" stroke-width="2"/>
<path d="M1369.85 1325L1364.9 1310.63L1349.16 1254.13L1342.25 1238.88L1342.35 1232.58L1340.67 1224.83L1321.49 1165.43L1317.2 1140.16L1326.81 1119.75L1349.16 1099.28L1397.37 1091.76L1402.9 1091.08L1450.37 1084.12L1500.47 1094.4L1547.72 1140.16L1549.19 1142.34L1551.58 1165.02L1555.1 1143.38L1562.06 1140.16L1608.72 1099.92L1652.79 1076.69L1664.73 1058.64L1664.77 1047.74L1705.08 1003.06L1754 990.321" stroke="#191919" stroke-opacity="0.8" stroke-width="2"/>
<path d="M1754 797.011L1735.07 787.76L1724.84 770.474L1712.84 732.886L1738.46 692.246L1686.33 708.684L1652.79 692.322L1604.27 726.17L1577.03 770.474L1572.02 789.14L1551.58 827.368L1535.59 785.075L1528.34 770.474L1510.81 733.249L1506.56 719.162L1472.85 678.053L1470.65 659.529L1450.37 619.099L1427 656.715L1393.68 678.053L1367.87 695.141L1369.49 751.903L1362.28 770.474L1358.72 779.204L1349.16 855.079L1323.46 793.938L1251.71 773.909L1247.95 771.93L1246.59 771.711L1150.1 773.548L1146.74 773.161L1144.91 772.143L1143.24 770.474L1143 767.059L1146.74 756.467L1180.99 739.2L1225.32 749.816L1206.04 716.323L1218.46 678.053L1199.56 633.864L1198.03 631.214L1185.62 585.632L1184.9 550.779L1186.12 529.172L1185.47 493.211L1191.17 452.636L1191.74 441.885L1198.67 400.789L1171.46 378.217L1146.74 342.695L1128.2 325.294L1115.18 308.368L1128.77 291.96L1146.74 273.58L1168.32 235.658L1179.97 215.947L1160.46 203.415L1146.74 186.746L1117.35 150.363L1115.09 123.526L1113.46 93.1396L1146.74 35.9954L1147.92 32.1888L1147.88 31.1053L1147.78 30.1559L1146.74 25.6607L1103.95 -22.2434L1088.56 -61.3158L1079.73 -92.5508L1069.54 -131.813L1063.54 -153.737L1053.82 -161.313L1045.53 -166.867L1014.62 -181.958L987.916 -193.551L944.316 -221.063L928.803 -231.992L914.716 -246.158L877.851 -277.886L843.105 -304.96L828.304 -325.063L821.955 -338.579L820.7 -359.038L843.105 -379.571L865.421 -410.622L870.404 -431" stroke="#191919" stroke-opacity="0.8" stroke-width="2"/>
<path d="M1381.48 1325L1373.74 1302.55L1355.98 1238.81L1354.02 1232.58L1354.81 1227.42L1349.16 1216.87L1330.02 1157.63L1327.06 1140.16L1333.7 1126.04L1349.16 1111.9L1386.49 1106.07L1408.68 1102.09L1450.37 1095.98L1489.87 1104.09L1527.11 1140.16L1536.45 1153.98L1544 1225.66L1546.39 1232.58L1547.34 1236.45L1551.58 1238.68L1555.29 1235.96L1558.14 1232.58L1564.02 1221.21L1573.9 1160.54L1617.96 1140.16L1635.87 1124.71L1652.79 1115.79L1680.85 1073.36L1680.95 1047.74L1713.95 1011.16L1754 1000.73" stroke="#191919" stroke-opacity="0.8" stroke-width="2"/>
<path d="M1754 467.016L1749.19 488.82L1748.37 493.211L1746.11 500.42L1724.73 558.904L1717.35 585.632L1705.19 630.205L1707.18 635.301L1693.96 640.461L1652.79 670.346L1643.9 669.938L1636.22 678.053L1584.23 707.868L1564.76 758.441L1557.36 770.474L1556.22 774.711L1551.58 783.39L1547.95 773.789L1546.3 770.474L1542.32 762.023L1524.45 702.83L1504.13 678.053L1498.88 633.758L1495.33 626.685L1485.97 585.632L1482.17 556.594L1450.37 536.747L1433.49 570.221L1428.09 585.632L1396.13 628.527L1349.16 662.168L1316.52 648.251L1285.64 643.63L1248.67 586.293L1248.12 585.632L1248.09 585.502L1247.95 583.49L1240.08 500.397L1239.95 493.211L1240.86 486.737L1247.95 458.759L1255.7 407.87L1255.99 400.789L1254.65 394.67L1247.95 390.137L1201.48 350.801L1168.88 308.368L1193.44 265.726L1196.11 261.031L1222.74 215.947L1178.13 187.282L1146.74 149.157L1134.82 134.407L1133.91 123.526L1133.25 111.207L1146.74 88.0393L1160.55 43.7202L1160.07 31.1053L1158.84 20.052L1146.74 -32.285L1132.46 -48.2743L1127.32 -61.3158L1120.56 -85.2166L1110.16 -120.336L1101.03 -153.737L1071.09 -177.077L1045.53 -194.19L1008.44 -212.297L957.679 -246.158L949.474 -250.869L944.316 -257.053L898.286 -296.547L843.894 -338.579L844.587 -339.932L883.515 -394.099L892.539 -431" stroke="#191919" stroke-opacity="0.8" stroke-width="2"/>
<path d="M1393.1 1325L1382.58 1294.48L1370.86 1252.39L1364.63 1232.58L1367.13 1216.17L1349.16 1182.64L1338.56 1149.83L1336.92 1140.16L1340.6 1132.34L1349.16 1124.51L1369.83 1121.28L1419.87 1112.31L1450.37 1107.84L1479.27 1113.77L1506.51 1140.16L1523.7 1165.61L1528.54 1211.54L1535.83 1232.58L1538.7 1244.34L1551.58 1251.11L1562.84 1242.87L1571.53 1232.58L1589.39 1198.05L1592.71 1177.71L1631.14 1159.93L1652.79 1145.56L1658.78 1145.62L1677.01 1140.16L1677.37 1117.71L1696.96 1088.08L1697.13 1047.74L1722.82 1019.26L1754 1011.14" stroke="#191919" stroke-opacity="0.8" stroke-width="2"/>
<path d="M1404.73 1325L1391.42 1286.41L1385.73 1265.98L1375.23 1232.58L1379.45 1204.92L1349.16 1148.41L1347.1 1142.04L1346.78 1140.16L1347.5 1138.64L1349.16 1137.12L1353.17 1136.49L1431.06 1122.53L1450.37 1119.7L1468.66 1123.45L1485.91 1140.16L1510.96 1177.25L1513.08 1197.43L1525.26 1232.58L1530.06 1252.23L1551.58 1263.53L1570.4 1249.77L1584.91 1232.58L1606.69 1190.48L1652.79 1159.89L1674.66 1160.13L1741.26 1140.16L1741.45 1128.69L1713.16 1085.03L1713.31 1047.74L1731.69 1027.36L1754 1021.55" stroke="#191919" stroke-opacity="0.8" stroke-width="2"/>
<path d="M1754 388.639L1750.33 397.435L1745.24 400.789L1743.32 410.542L1729.94 471.236L1725.84 493.211L1714.49 529.292L1708.94 544.481L1697.57 585.632L1688.64 618.366L1652.79 644.39L1613.97 642.605L1580.43 678.053L1562.71 688.215L1551.58 717.115L1542.33 686.498L1535.41 678.053L1533.44 661.491L1547.04 589.772L1546.1 585.632L1545.36 579.95L1551.58 573.89L1568.53 508.691L1567.96 493.211L1563.23 482.568L1551.58 469.968L1530.76 474.199L1467.85 477.244L1450.37 479.932L1438.09 482.003L1428.34 493.211L1413.89 526.524L1404.98 544.187L1390.46 585.632L1373.74 608.079L1349.16 625.683L1319.26 612.933L1296.28 585.632L1288.95 548.192L1287.62 529.439L1281.78 493.211L1283.38 460.854L1287.09 436.531L1288.54 400.789L1281.78 369.899L1247.95 347.018L1225.98 328.425L1210.57 308.368L1223.45 286.002L1247.95 244.988L1261.4 228.232L1259.82 215.947L1255.17 209.35L1247.95 207.051L1206.24 177.862L1195.79 171.15L1186.41 159.758L1154.45 123.526L1153.95 116.938L1173.18 55.2516L1172.26 31.1053L1169.91 9.94813L1155.21 -53.5741L1154.16 -61.3158L1155.05 -68.9049L1146.74 -125.518L1140.16 -147.729L1138.51 -153.737L1088.35 -192.841L1045.53 -221.513L1027.94 -230.1L1003.87 -246.158L967.304 -267.15L944.316 -294.711L919.548 -315.962L890.28 -338.579L907.506 -372.192L906.152 -396.15L914.674 -431" stroke="#191919" stroke-opacity="0.8" stroke-width="2"/>
<path d="M1754 355.686L1740.36 388.337L1721.47 400.789L1714.35 436.994L1710.68 453.652L1703.31 493.211L1692.03 529.046L1686.22 555.104L1677.79 585.632L1672.8 603.906L1652.79 618.434L1618.59 616.861L1593.92 585.632L1591.52 549.162L1595.61 533.418L1594.12 493.211L1581.85 465.568L1551.58 432.843L1506.43 442.017L1498.23 444.491L1450.37 451.848L1412.14 458.299L1381.74 493.211L1372.5 514.522L1354.57 580.694L1352.84 585.632L1351.35 587.63L1349.16 589.198L1346.5 588.063L1344.45 585.632L1343.42 580.396L1324.99 515.28L1321.43 493.211L1322.63 468.987L1320.01 427.405L1321.09 400.789L1314.08 368.756L1349.16 312.232L1350.53 309.626L1350.53 308.368L1350.16 307.451L1349.16 306.734L1338.08 298.257L1269.99 288.241L1294.15 258.141L1288.74 215.947L1272.76 193.286L1247.95 185.391L1209.59 158.549L1178.7 123.526L1176.63 96.2305L1185.81 66.783L1184.45 31.1053L1180.97 -0.15576L1172.2 -38.0599L1169.05 -61.3158L1171.7 -84.1135L1163.76 -138.188L1166.91 -153.737L1158 -164.023L1146.74 -178.251L1106.38 -209.306L1049.92 -246.158L1047.47 -247.932L1045.53 -248.164L1037.86 -253.16L985.135 -283.432L944.316 -332.369L940.81 -335.377L936.666 -338.579L939.105 -343.337L934.65 -422.174L936.809 -431" stroke="#191919" stroke-opacity="0.8" stroke-width="2"/>
<path d="M1754 322.733L1730.4 379.239L1697.7 400.789L1690.86 435.558L1686.52 462.413L1680.78 493.21L1674.53 513.064L1659.77 579.261L1658.01 585.632L1656.97 589.445L1652.79 592.477L1645.65 592.149L1640.5 585.632L1639.72 573.695L1621.35 521.921L1620.29 493.21L1600.47 448.567L1581.79 428.38L1558.4 400.789L1553.32 399.199L1551.58 396.333L1546.69 396.329L1537.09 400.789L1471.9 420.453L1450.37 423.763L1419.51 428.971L1363.76 400.789L1363.61 387.592L1387.14 343.051L1387.01 308.368L1376.88 283.055L1349.16 263.277L1320.96 241.693L1317.66 215.947L1290.36 177.222L1247.95 163.731L1223.02 146.287L1202.94 123.526L1199.6 79.3755L1198.36 76.3843L1196.64 31.1052L1192.04 -10.2597L1189.19 -22.5456L1183.93 -61.3158L1188.36 -99.3221L1185.58 -118.271L1192.75 -153.737L1172.43 -177.199L1146.74 -209.653L1125.04 -226.347L1094.69 -246.158L1067.29 -266.028L1045.53 -268.63L1000.82 -297.757L964.189 -338.579L973.047 -364.815L970.108 -407.448L996.488 -431" stroke="#191919" stroke-opacity="0.8" stroke-width="2"/>
<path d="M1754 292.748L1749.85 304.576L1748.54 308.368L1741.45 319.828L1720.44 370.141L1673.93 400.789L1670.71 417.154L1659.37 487.204L1658.25 493.211L1657.03 497.083L1652.79 516.093L1646.66 498.81L1646.45 493.211L1642.13 483.476L1627.75 423.656L1608.36 400.789L1566.07 387.561L1551.58 363.716L1510.94 363.681L1470.35 382.54L1450.37 382.488L1423.58 332.831L1423.49 308.368L1408.01 269.686L1409.05 253.675L1368.55 233.659L1349.16 219.821L1346.85 218.054L1346.58 215.947L1341.92 209.338L1329.85 141.154L1279.11 151.986L1247.95 142.071L1236.45 134.025L1227.19 123.526L1225.65 103.161L1210.14 65.628L1208.83 31.1053L1204.4 -8.65771L1204.23 -21.3972L1198.81 -61.3158L1203.54 -101.869L1211.94 -120.859L1218.6 -153.737L1186.86 -190.375L1146.74 -241.054L1143.7 -243.388L1139.46 -246.158L1087.1 -284.123L1045.53 -289.095L1013.9 -309.7L987.986 -338.579L1001.55 -378.74L1045.53 -418.481L1069.65 -408.974L1106.01 -393.809L1146.74 -379.116L1185.35 -373.836L1204.75 -378.027L1247.95 -375.092L1279.73 -401.981L1329.21 -412.781L1349.16 -420.782L1358.33 -422.629L1377.25 -431" stroke="#191919" stroke-opacity="0.8" stroke-width="2"/>
<path d="M1396.84 -431L1364.72 -416.791L1349.16 -413.657L1315.29 -400.075L1288.27 -394.178L1247.95 -360.058L1222.53 -361.785L1156.54 -347.527L1146.74 -348.867L1128.11 -355.586L1081.37 -371.309L1045.53 -385.435L1019.74 -362.13L1011.78 -338.579L1026.98 -321.644L1045.53 -309.56L1082.09 -305.188L1127.28 -320.809L1146.74 -311.886L1168.84 -266.342L1166.8 -246.158L1201.12 -203.399L1231.17 -169.06L1244.44 -153.737L1243.65 -149.808L1216.99 -89.587L1213.69 -61.3158L1217.47 -33.4874L1217.97 3.73131L1221.02 31.1053L1221.92 54.8717L1247.95 117.878L1251.38 120.39L1336.33 111.813L1349.16 114.89L1356.5 116.825L1364.77 123.526L1379.9 151.601L1383.45 184.632L1427.33 194.908L1450.37 207.661L1455.55 211.215L1462.74 215.947L1468.16 232.19L1464.66 295.314L1478.11 308.368L1526.71 331.077L1551.58 331.098L1578.81 375.922L1649.91 398.156L1652.79 399.651L1659.62 394.556L1710.47 361.044L1719.2 340.143L1738.85 308.368L1742.48 297.853L1754 265.056" stroke="#191919" stroke-opacity="0.8" stroke-width="2"/>
<path d="M1754 237.364L1735.12 291.13L1729.17 308.368L1701.6 352.943L1652.79 389.378L1623.88 374.393L1591.56 364.284L1565.07 320.689L1555.33 308.368L1554.43 305.767L1551.58 293.655L1509.66 254.225L1496.89 215.947L1469.86 198.148L1450.37 184.778L1408.61 161.662L1388.05 123.526L1367.44 106.833L1349.16 102.012L1317.21 94.349L1275.26 98.5838L1247.95 78.6061L1233.7 44.1154L1233.2 31.1053L1231.54 16.1203L1230.71 -45.5776L1228.57 -61.3158L1230.44 -77.3044L1247.95 -116.859L1254.19 -148.039L1253.75 -153.737L1252.98 -158.335L1247.95 -178.295L1214.94 -216.019L1190.75 -246.158L1195.23 -290.442L1191.87 -297.361L1208.09 -338.579L1240.32 -345.543L1247.95 -345.025L1296.82 -386.375L1301.38 -387.37L1349.16 -406.531L1371.11 -410.954L1416.43 -431" stroke="#191919" stroke-opacity="0.8" stroke-width="2"/>
<path d="M1436.02 -431L1377.5 -405.116L1349.16 -399.406L1302.87 -380.844L1254.3 -338.579L1252.36 -334.549L1247.95 -311.637L1217.51 -273.95L1214.7 -246.158L1228.76 -228.638L1247.95 -206.71L1258.81 -163.655L1260.47 -153.737L1261.41 -141.446L1247.95 -74.1904L1243.89 -65.0219L1243.46 -61.3158L1243.95 -57.6677L1245.1 28.5094L1245.39 31.1053L1245.48 33.3591L1247.95 39.3341L1293.22 72.4445L1298.83 77.064L1349.16 89.1344L1378.38 96.8404L1411.33 123.526L1424.21 147.415L1450.37 161.895L1484.17 185.081L1531.05 215.947L1535.84 230.317L1551.58 245.119L1563.83 297.185L1567.68 308.368L1603.38 353.49L1652.79 379.106L1695.41 347.29L1719.48 308.368L1727.76 284.407L1750.76 218.909L1751.79 215.947L1752.04 214.157L1754 203.771" stroke="#191919" stroke-opacity="0.8" stroke-width="2"/>
<path d="M1754 150.031L1743.39 206.257L1742.03 215.947L1736.45 231.978L1720.4 277.683L1709.8 308.368L1689.22 341.638L1652.79 368.833L1610.55 346.937L1580.04 308.368L1573.22 288.603L1557.38 221.245L1555.81 215.947L1554.92 212.9L1551.58 207.127L1516.36 183.787L1498.48 172.015L1450.37 139.012L1439.81 133.168L1434.61 123.526L1389.32 86.8483L1349.16 76.2568L1310 66.865L1266.57 31.1053L1260.14 19.9719L1259.03 -51.1967L1256.12 -61.3158L1255.24 -67.9779L1268.63 -134.853L1267.19 -153.737L1264.63 -168.975L1247.95 -235.125L1242.58 -241.258L1238.65 -246.158L1239.43 -253.931L1247.95 -264.472L1260.08 -327.495L1265.41 -338.579L1308.29 -375.893L1349.16 -392.281L1383.9 -399.279L1445.44 -426.5L1450.37 -428.04L1463.5 -419.005L1509.64 -392.702L1522.02 -365.573L1539.73 -338.579L1543.76 -331.44L1551.58 -324.4L1580.35 -312.308L1611.28 -300.67L1652.79 -279.8L1677.3 -316.198L1699.9 -338.579L1709.91 -378.84L1720.23 -400.163L1731.15 -431" stroke="#191919" stroke-opacity="0.8" stroke-width="2"/>
<path d="M1749.2 -431L1746.91 -424.525L1720.23 -369.413L1712.57 -338.579L1683.89 -310.18L1652.79 -263.994L1609.33 -285.842L1600.35 -290.689L1551.58 -311.186L1536.47 -324.786L1528.69 -338.579L1499.34 -383.301L1450.37 -416.987L1427.04 -409.695L1390.29 -393.441L1349.16 -385.155L1313.72 -370.942L1276.52 -338.579L1267.81 -320.441L1254.69 -252.314L1252.65 -246.158L1253.64 -240.956L1270.46 -174.295L1273.91 -153.737L1275.85 -128.261L1265.69 -77.5189L1267.84 -61.3158L1274.9 -36.7049L1275.56 5.88735L1290.12 31.1053L1321.17 56.666L1349.16 63.3791L1398.85 76.4828L1400.75 76.411L1450.37 112.153L1456.26 118.144L1460.91 123.526L1512.56 159.16L1551.58 185.02L1563.28 205.263L1566.42 215.947L1571.92 234.522L1582.62 280.021L1592.4 308.368L1617.73 340.384L1652.79 358.56L1683.03 335.986L1700.11 308.368L1713.03 270.96L1722.13 245.047L1732.27 215.947L1734.74 198.356L1747.79 129.198L1748.65 123.526L1750.06 119.924L1754 113.84" stroke="#191919" stroke-opacity="0.8" stroke-width="2"/>
<path d="M1754 -408.417L1730.56 -359.985L1725.24 -338.579L1690.48 -304.162L1652.79 -248.189L1647.84 -250.678L1590.44 -281.64L1551.58 -297.972L1529.19 -318.132L1517.65 -338.579L1492.44 -376.996L1450.37 -405.933L1408.64 -392.891L1396.68 -387.604L1349.16 -378.03L1319.14 -365.991L1287.63 -338.579L1275.53 -313.387L1265.71 -262.379L1260.33 -246.158L1262.96 -232.451L1276.29 -179.615L1280.63 -153.737L1283.07 -121.668L1276.14 -87.0599L1279.55 -61.3157L1290.77 -22.213L1290.99 -8.19713L1313.68 31.1054L1332.34 46.467L1349.16 50.5015L1379.02 58.3767L1422.29 56.7447L1450.37 76.9719L1474.5 101.494L1493.5 123.526L1526.59 146.349L1551.58 162.913L1571.64 197.625L1577.03 215.947L1586.46 247.8L1592.02 271.439L1604.76 308.369L1624.9 333.832L1652.79 348.287L1676.84 330.333L1690.43 308.369L1705.67 264.237L1707.82 258.116L1722.5 215.947L1726.08 190.456L1735.53 140.389L1738.09 123.526L1742.27 112.817L1754 94.7268" stroke="#191919" stroke-opacity="0.8" stroke-width="2"/>
<path d="M1754 -377.659L1740.88 -350.557L1737.91 -338.579L1697.07 -298.144L1676.87 -268.149L1660.79 -246.158L1659.07 -240.422L1652.79 -230.666L1643.45 -237.628L1629.53 -246.158L1580.53 -272.591L1551.58 -284.758L1521.9 -311.479L1506.61 -338.579L1485.54 -370.692L1450.37 -394.88L1404.43 -380.525L1394.58 -380.055L1349.16 -370.905L1324.56 -361.04L1298.74 -338.579L1283.26 -306.333L1276.73 -272.444L1268.01 -246.158L1272.27 -223.946L1282.11 -184.935L1287.35 -153.737L1290.29 -115.076L1286.59 -96.6011L1291.26 -61.3159L1303.28 -19.4226L1323.94 8.07575L1337.23 31.1052L1343.5 36.2679L1349.16 37.6238L1359.19 40.2704L1443.83 37.0782L1450.37 41.7905L1492.73 84.8437L1526.1 123.526L1540.61 133.539L1551.58 140.805L1580.01 189.987L1587.64 215.947L1601 261.077L1601.42 262.856L1617.12 308.368L1632.08 327.279L1652.79 338.014L1670.65 324.68L1680.74 308.368L1693.62 271.082L1698.28 257.486L1712.74 215.947L1717.43 182.555L1723.28 151.58L1727.54 123.526L1734.49 105.71L1754 75.6136" stroke="#191919" stroke-opacity="0.8" stroke-width="2"/>
<path d="M1754 56.5006L1726.71 98.6025L1716.98 123.526L1711.02 162.771L1708.78 174.655L1702.98 215.947L1690.87 250.723L1679.47 284.003L1671.05 308.369L1664.46 319.028L1652.79 327.741L1639.26 320.726L1629.48 308.369L1618.76 277.294L1609.85 255.154L1598.24 215.947L1588.37 182.35L1557.49 128.923L1555.09 123.526L1554.2 121.132L1551.58 114.615L1511.66 67.5572L1476.06 31.1053L1455.09 26.7957L1450.37 27.2183L1443.78 25.0907L1354.01 26.672L1349.16 20.8223L1312.56 -27.8953L1302.97 -61.3158L1297.04 -106.142L1297.51 -108.483L1294.07 -153.737L1287.94 -190.255L1281.59 -215.441L1275.69 -246.158L1287.76 -282.509L1290.98 -299.279L1309.86 -338.579L1329.98 -356.089L1349.16 -363.779L1384.57 -370.913L1413.45 -372.29L1450.37 -383.826L1478.63 -364.387L1495.57 -338.579L1514.61 -304.825L1551.58 -271.544L1570.62 -263.542L1602.85 -246.158L1632.73 -227.839L1652.79 -212.889L1666.28 -233.84L1669.96 -246.158L1703.62 -292.166L1709.95 -298.351L1750.57 -338.579L1751.21 -341.129L1754 -346.9" stroke="#191919" stroke-opacity="0.8" stroke-width="2"/>
<path d="M1754 37.3876L1718.92 91.4953L1706.43 123.526L1699.89 166.541L1699.17 173.597L1693.22 215.947L1683.47 243.96L1665.32 296.923L1661.37 308.368L1658.27 313.376L1652.79 317.469L1646.43 314.173L1641.84 308.368L1636.8 293.772L1618.2 247.529L1608.85 215.947L1596.74 174.713L1584.55 153.637L1571.15 123.526L1566.21 110.169L1551.58 73.808L1531.17 49.745L1512.96 31.1053L1461.87 20.6063L1450.37 21.6357L1434.32 16.4527L1363.84 17.6941L1349.16 -0.00157096L1321.84 -36.3682L1314.68 -61.3158L1309.94 -97.1281L1303.92 -112.432L1300.79 -153.737L1293.76 -195.575L1290.9 -206.937L1283.37 -246.158L1298.67 -292.259L1298.96 -292.736L1320.97 -338.579L1335.4 -351.138L1349.16 -356.654L1374.55 -361.77L1422.47 -364.054L1450.37 -372.773L1471.73 -358.082L1484.53 -338.579L1507.33 -298.171L1551.58 -258.33L1560.71 -254.493L1576.16 -246.158L1622.01 -218.05L1652.79 -195.112L1673.49 -227.258L1679.14 -246.158L1709.12 -287.143L1754 -330.994" stroke="#191919" stroke-opacity="0.8" stroke-width="2"/>
<path d="M1754 20.6134L1748.38 25.9748L1743.93 31.1051L1733.61 49.7215L1711.14 84.3878L1695.87 123.526L1690.62 158.076L1687.97 183.822L1683.46 215.947L1676.06 237.196L1652.79 305.128L1626.55 239.904L1619.46 215.947L1607.24 174.351L1606.17 166.101L1587.22 123.526L1578.21 99.2052L1551.58 33.0012L1550.67 31.9328L1549.86 31.1051L1468.64 14.4167L1450.37 16.053L1424.86 7.81443L1373.68 8.71603L1349.16 -20.8256L1331.12 -44.8412L1326.39 -61.3159L1323.26 -84.9655L1310.21 -118.17L1307.51 -153.737L1299.97 -198.656L1299.72 -201.011L1291.05 -246.158L1304.57 -286.876L1318.75 -310.808L1332.08 -338.579L1340.83 -346.187L1349.16 -349.529L1364.54 -352.628L1431.49 -355.819L1450.37 -361.72L1464.82 -351.778L1473.48 -338.579L1498.06 -295.029L1499.59 -291.104L1549.85 -246.158L1550.94 -245.573L1551.58 -244.963L1555.88 -242.231L1611.29 -208.262L1652.79 -177.335L1680.69 -220.676L1688.31 -246.158L1714.62 -282.12L1754 -320.596" stroke="#191919" stroke-opacity="0.8" stroke-width="2"/>
<path d="M1754 4.98455L1740.01 18.3327L1728.93 31.1052L1703.35 77.2707L1703.31 77.3898L1685.32 123.526L1681.35 149.611L1676.77 194.047L1673.7 215.947L1668.65 230.433L1652.79 276.743L1634.9 232.279L1630.07 215.947L1621.74 187.591L1617.59 155.67L1603.28 123.526L1590.22 88.2418L1576.32 53.7003L1567.58 31.1052L1559.41 23.9582L1551.58 19.8405L1541.36 21.7762L1475.42 8.22726L1450.37 10.4705L1415.4 -0.823601L1383.51 -0.261802L1349.16 -41.6495L1340.39 -53.314L1338.1 -61.3158L1336.58 -72.8026L1316.49 -123.908L1314.23 -153.737L1307.9 -191.409L1306.25 -206.979L1298.73 -246.158L1310.46 -281.494L1338.54 -328.879L1343.19 -338.579L1346.25 -341.236L1349.16 -342.403L1354.53 -343.486L1440.51 -347.584L1450.37 -350.666L1457.92 -345.473L1462.44 -338.579L1475.28 -315.831L1488.76 -281.219L1527.97 -246.158L1542.82 -238.164L1551.58 -229.81L1600.71 -198.602L1618.12 -185.392L1652.79 -159.558L1687.9 -214.095L1697.49 -246.158L1720.12 -277.096L1754 -310.198" stroke="#191919" stroke-opacity="0.8" stroke-width="2"/>
<path d="M1754 -10.6442L1731.64 10.6906L1713.94 31.1053L1693.39 68.1776L1686.92 92.3624L1674.76 123.526L1672.08 141.146L1665.58 204.272L1663.94 215.947L1661.25 223.67L1652.79 248.359L1643.25 224.654L1640.68 215.947L1636.23 200.83L1629.01 145.238L1619.35 123.526L1602.27 77.3912L1602.23 77.2773L1584.37 31.1053L1567.61 16.463L1551.58 8.02701L1530.65 11.9927L1482.2 2.03792L1450.37 4.88804L1405.94 -9.46156L1393.34 -9.23959L1353.13 -57.6922L1349.63 -61.3157L1349.55 -61.678L1349.16 -62.5234L1322.78 -129.646L1320.95 -153.737L1315.84 -184.162L1312.79 -212.947L1306.41 -246.158L1316.36 -276.111L1349.16 -331.476L1358.93 -329.654L1433.37 -338.579L1449.52 -339.349L1450.37 -339.613L1451.01 -339.169L1451.4 -338.579L1452.5 -336.633L1477.94 -271.334L1506.09 -246.158L1534.71 -230.755L1551.58 -214.658L1590.92 -189.666L1638.29 -153.737L1646.23 -147.749L1652.79 -147.212L1659.56 -147.551L1663.02 -153.737L1671.47 -170.795L1695.11 -207.513L1706.66 -246.158L1725.62 -272.073L1754 -299.801" stroke="#191919" stroke-opacity="0.8" stroke-width="2"/>
<path d="M1754 -26.2731L1723.27 3.04827L1698.94 31.1053L1683.43 59.0843L1670.52 107.335L1664.2 123.526L1662.81 132.681L1654.38 214.497L1654.17 215.947L1653.84 216.907L1652.79 219.974L1651.6 217.029L1651.28 215.947L1650.73 214.069L1640.44 134.807L1635.42 123.526L1626.54 99.5564L1614.63 65.952L1601.15 31.1053L1575.82 8.9677L1551.58 -3.78672L1519.93 2.20907L1488.98 -4.15158L1450.37 -0.694586L1401.33 -16.5348L1358.12 -61.3158L1356.69 -68.194L1349.16 -84.2487L1329.06 -135.384L1327.67 -153.737L1323.77 -176.916L1319.32 -218.915L1314.1 -246.158L1322.25 -270.728L1349.16 -316.144L1380.03 -310.39L1425.46 -315.837L1450.37 -304.43L1467.11 -261.448L1484.21 -246.158L1526.6 -223.345L1551.58 -199.506L1581.14 -180.729L1616.72 -153.737L1636.48 -138.846L1652.79 -137.511L1669.64 -138.353L1678.23 -153.737L1699.24 -196.158L1702.32 -200.931L1715.84 -246.158L1731.12 -267.05L1754 -289.403" stroke="#191919" stroke-opacity="0.8" stroke-width="2"/>
<path d="M1754 -41.9019L1714.91 -4.59386L1683.94 31.1054L1673.47 49.9911L1654.12 122.307L1653.65 123.526L1653.54 124.216L1652.79 131.535L1651.86 124.376L1651.48 123.526L1650.81 121.722L1627.03 54.6268L1617.93 31.1054L1584.03 1.4725L1551.58 -15.6003L1509.22 -7.57442L1495.76 -10.3409L1450.37 -6.27704L1405.84 -20.6586L1366.62 -61.3157L1363.83 -74.71L1349.16 -105.974L1335.34 -141.122L1334.39 -153.737L1331.71 -169.669L1325.86 -224.883L1321.78 -246.158L1328.15 -265.346L1349.16 -300.812L1398.86 -291.546L1405.11 -287.489L1450.37 -266.757L1456.29 -251.563L1462.33 -246.158L1518.48 -215.936L1551.58 -184.353L1571.35 -171.793L1595.15 -153.737L1626.73 -129.943L1652.79 -127.809L1679.71 -129.155L1693.43 -153.737L1712.3 -191.815L1714.13 -209.75L1725.01 -246.158L1736.62 -262.027L1754 -279.005" stroke="#191919" stroke-opacity="0.8" stroke-width="2"/>
<path d="M1754 -268.607L1742.12 -257.003L1734.19 -246.158L1726.75 -221.275L1722.77 -182.254L1708.64 -153.737L1689.78 -119.958L1652.79 -118.108L1616.98 -121.04L1573.59 -153.737L1561.57 -162.857L1551.58 -169.201L1510.37 -208.527L1464.6 -233.159L1450.37 -241.793L1443.94 -240.286L1435.17 -246.158L1384.92 -278.814L1349.16 -285.48L1334.04 -259.963L1329.46 -246.158L1332.4 -230.851L1339.65 -162.422L1341.1 -153.737L1341.63 -146.86L1349.16 -127.699L1370.96 -81.2262L1375.11 -61.3159L1410.36 -24.7826L1450.37 -11.8598L1499.69 -16.2761L1504.73 -18.5379L1551.58 -27.4141L1592.24 -6.02295L1634.72 31.1052L1639.43 43.3014L1652.79 80.982L1663.51 40.8977L1668.94 31.1052L1706.54 -12.2363L1754 -57.5309" stroke="#191919" stroke-opacity="0.8" stroke-width="2"/>
<path d="M1754 -258.209L1747.62 -251.98L1743.37 -246.158L1739.37 -232.8L1733.24 -172.692L1723.85 -153.737L1699.85 -110.76L1652.79 -108.406L1607.23 -112.137L1552.02 -153.737L1551.78 -153.921L1551.58 -154.049L1502.25 -201.117L1496.01 -204.476L1450.37 -232.162L1429.75 -227.329L1401.63 -246.158L1370.98 -266.081L1349.16 -270.148L1339.93 -254.58L1337.14 -246.158L1338.93 -236.819L1347.58 -155.175L1347.82 -153.737L1347.91 -152.598L1349.16 -149.424L1378.1 -87.7422L1383.61 -61.3158L1414.88 -28.9064L1450.37 -17.4423L1494.12 -21.36L1521.06 -33.4445L1551.58 -39.2276L1600.45 -13.5182L1651.5 31.1052L1651.84 31.9762L1652.79 34.6672L1653.56 31.8046L1653.94 31.1052L1658.34 26.0389L1697.63 -20.3736L1740.33 -61.3158L1719.43 -92.8831L1754 -86.8737" stroke="#191919" stroke-opacity="0.8" stroke-width="2"/>
<path d="M1344.82 -246.158L1345.47 -242.787L1349.16 -207.955L1370.34 -173.08L1359.37 -153.737L1363.45 -140.685L1385.23 -94.2581L1392.1 -61.3157L1419.39 -33.0302L1450.37 -23.0248L1488.56 -26.444L1537.38 -48.3511L1551.58 -51.0412L1578.12 -37.0751L1610.78 -22.9518L1652.79 13.2462L1688.39 -28.8084L1722.3 -61.3157L1696.11 -100.871L1652.79 -98.7046L1607.81 -102.389L1584.14 -91.0468L1551.58 -104.785L1540.45 -143.572L1539.37 -153.737L1495.64 -195.074L1450.37 -222.531L1415.56 -214.372L1368.1 -246.158L1357.03 -253.348L1349.16 -254.816L1345.83 -249.198L1344.82 -246.158Z" stroke="#191919" stroke-opacity="0.8" stroke-width="2"/>
</svg>
