<svg width="307" height="395" viewBox="0 0 307 395" fill="none" xmlns="http://www.w3.org/2000/svg">
<path d="M151.275 231.484C152.074 219.829 164.325 212.831 175.238 208.658C186.803 204.236 199.031 200.535 211.384 201.491C224.783 202.526 237.495 209.175 246.686 218.974C255.877 228.773 261.626 241.564 263.809 254.828C260.254 245.839 252.525 238.594 243.323 235.624C234.12 232.654 223.613 234.026 215.479 239.246C210.326 242.554 206.063 247.313 200.381 249.596C192.056 252.949 182.618 250.283 174.248 247.065C164.955 243.51 155.201 238.571 151.275 231.484Z" fill="#7EBD66"/>
<path d="M118.684 227.659C92.3025 210.615 66.495 192.683 41.3175 173.906C53.9738 183.413 50.79 203.977 60.4763 216.51C63.66 220.627 68.0813 223.631 72.6825 226.084C79.3313 229.628 86.6775 232.193 94.2038 232.193C101.134 232.193 107.85 230.033 114.521 228.188C115.545 227.906 116.704 227.636 117.638 228.154C118.583 228.66 118.785 230.336 118.684 227.659Z" fill="#7EBD66"/>
<path d="M177.802 76.7513C181.841 72.2963 185.936 67.7513 188.377 62.2613C190.819 56.7713 191.381 50.1 188.344 44.9138C184.237 37.9275 175.35 35.8013 168.274 31.8525C162.986 28.8938 158.486 24.6975 153.322 21.5138C148.159 18.3413 141.836 16.1925 136.042 17.97C128.966 20.1413 124.837 27.285 121.384 33.8325C119.269 29.895 122.745 25.44 123.949 21.1313C126.682 11.2875 116.344 2.07376 106.207 0.780014C96.0712 -0.513736 86.0137 3.13126 75.8437 4.15501C66.8775 5.05501 57.6975 3.86252 49.2487 0.712517C50.0137 6.67502 46.5037 12.9413 41.0137 15.3938C36.8175 17.2725 30.5175 18.6675 30.9787 23.235C31.1812 25.2375 32.8125 26.7563 34.3087 28.1063C39.6975 33 44.625 38.4 48.9787 44.2275C49.6537 45.1275 50.34 46.14 50.2725 47.265C50.1375 49.2225 47.8987 50.2125 46.0312 50.8425C34.4212 54.7688 22.485 63.7125 22.5975 75.975C22.71 88.2488 34.6012 96.855 45.75 101.985C39.3487 101.445 33.6337 107.531 33.2962 113.955C32.9587 120.379 36.9975 126.443 42.3637 129.975C47.73 133.519 54.2212 134.891 60.6112 135.555C51.0712 145.489 52.2412 163.601 62.985 172.219C69.4762 177.428 78.0712 179.048 86.3287 180.105C92.055 180.836 97.8937 181.376 103.586 180.443C119.167 177.889 131.801 163.073 131.869 147.278C138.011 153.938 147.641 157.166 156.562 155.569C165.472 153.971 173.381 147.581 176.824 139.2C177.735 136.984 178.466 134.475 180.435 133.103C182.854 131.415 186.116 132.09 189.007 132.675C195.656 134.025 202.789 134.453 209.021 131.775C215.254 129.098 220.226 122.595 219.326 115.868C218.302 108.24 210.799 103.448 204.06 99.7238C196.837 95.73 189.604 91.7363 182.381 87.7425C190.886 82.095 202.395 81.2963 211.586 85.7175C212.059 79.6538 207.829 73.995 202.53 71.0138C197.231 68.0325 191.01 67.2225 184.957 66.6375C184.699 65.49 184.44 64.3538 177.802 76.7513Z" fill="#FC749F"/>
<path d="M305.873 389.49C295.523 375.27 278.828 367.294 262.515 360.713C217.155 342.443 169.174 330.664 120.506 325.86C97.1513 323.554 73.0763 322.924 50.7563 330.135C28.425 337.346 7.92752 353.659 1.02002 376.08C29.8538 378.06 56.37 362.063 82.47 349.631C132.668 325.736 191.348 313.789 244.144 331.193C251.591 333.645 259.005 336.761 264.799 342.038C270.593 347.314 274.553 355.121 273.529 362.884C271.875 375.518 258.668 382.999 246.585 387.038C228.506 393.09 208.616 395.925 190.436 390.199C158.16 380.04 139.271 345.278 135.244 311.685C131.216 278.093 138.63 244.331 141.668 210.638C143.411 191.254 143.715 171.758 143.333 152.295C142.928 131.404 141.758 110.524 139.811 89.7226C139.361 84.9638 138.011 79.1363 133.376 77.9438C130.868 82.3876 137.01 88.4738 141.431 85.9088C145.391 83.8388 142.556 76.8188 138.09 76.5826C131.858 76.2563 128.618 86.0776 133.523 89.9476C138.428 93.8063 146.865 89.4188 147.09 83.1863C147.326 76.9538 140.216 71.9026 134.198 73.5563C128.179 75.2101 124.568 82.3313 126.098 88.3838C127.628 94.4363 133.511 98.8576 139.721 99.4763C142.736 99.7688 145.898 99.2513 148.429 97.5863C154.796 93.3901 154.92 84.1088 153.199 76.6838C151.534 69.5063 148.676 62.3851 143.524 57.1201C138.371 51.8551 130.598 48.7501 123.465 50.5838C121.136 51.1801 118.853 52.3613 117.458 54.3188C115.928 56.4788 115.669 59.2801 115.781 61.9238C116.096 69.5963 119.145 77.1226 124.253 82.8488C119.595 79.7213 112.058 77.2013 109.448 82.1626C107.58 85.7176 110.561 90.0488 114.083 91.9838C117.604 93.9188 121.789 94.6276 124.973 97.0801C120.945 94.4701 115.489 99.4763 115.86 104.269C116.231 109.061 120.034 112.785 123.701 115.89C131.824 122.786 140.509 129.041 149.621 134.565C152.648 128.704 155.73 122.651 156.281 116.07C156.833 109.489 154.256 102.199 148.406 99.1501C151.624 105.158 158.453 109.016 165.259 108.679C172.054 108.341 178.478 103.808 181.065 97.5076C181.549 96.3263 181.909 94.9876 181.47 93.7951C180.998 92.5351 179.76 91.7476 178.534 91.2076C171.919 88.2713 163.436 90.3751 158.959 96.0563C167.891 92.2651 175.609 84.8401 178.095 75.4576C180.593 66.0751 176.925 54.9488 168.476 50.1788C160.028 45.4088 147.506 48.9863 144.098 58.0763C147.585 45.9826 136.02 34.6313 124.331 29.9626C112.643 25.2938 99.2325 23.6513 89.8613 15.2476C90.435 22.3126 85.8563 28.6126 83.5275 35.3063C77.5425 52.5301 89.355 73.6688 107.175 77.5838C97.86 74.4788 88.185 65.1188 80.0175 70.5751C74.6288 74.1751 74.6625 82.7026 78.6225 87.8326C82.5825 92.9513 89.1413 95.2913 95.4863 96.6076C101.831 97.9126 108.424 98.4863 114.319 101.164C102.911 94.9988 86.6325 101.693 82.875 114.113C80.2538 122.775 82.965 132.923 78.1613 140.584C91.695 148.695 111.135 144.735 120.416 131.978C123.071 128.333 127.155 123.495 130.946 125.925C130.53 133.136 121.913 136.253 115.14 138.75C108.368 141.248 100.875 148.324 104.745 154.421C105.949 156.323 108.03 157.481 110.1 158.381C130.328 167.134 153.323 157.144 173.055 147.3C175.328 146.164 177.746 144.893 178.894 142.631C179.783 140.876 179.76 138.806 179.546 136.849C178.489 127.241 173.213 118.174 165.383 112.504C173.528 119.175 182.359 125.824 192.754 127.5C203.149 129.176 215.4 124.125 218.258 113.989C219.563 109.354 218.786 104.404 219.259 99.6113C219.731 94.8188 222.15 89.5426 226.819 88.3726C220.091 82.9163 212.408 78.1013 203.813 77.0326C195.218 75.9638 185.588 79.4851 181.616 87.1801C179.749 79.4063 189.874 74.5913 197.816 73.5901C205.759 72.5888 216.03 70.0463 216.57 62.0701C216.885 57.3338 213.24 53.3738 209.854 50.0551C203.149 43.4851 196.455 36.9263 189.75 30.3563C184.564 25.2826 178.59 19.8713 171.334 19.9163C165.056 19.9613 159.443 24.3263 156.169 29.6926C152.895 35.0588 151.534 41.3363 150.229 47.4788C149.79 40.0876 149.351 32.6963 148.901 25.3051C144.683 27.0488 139.789 24.8213 136.504 21.6601C133.208 18.4988 130.868 14.4488 127.538 11.3326C117.75 2.16381 102.158 3.24382 89.4788 7.62007C76.8 11.9963 64.7963 19.0726 51.4425 20.2201C60.0488 35.5088 60.5775 55.0613 52.815 70.8001C49.6313 77.2463 45.0075 83.8951 46.4475 90.9376C48.3713 100.421 59.7338 104.258 69.33 105.563C78.9263 106.879 90.1425 108.364 94.935 116.779C89.5463 113.989 83.7975 111.131 77.745 111.593C71.6925 112.054 65.595 117.33 66.6188 123.315C67.0463 125.801 68.5538 128.479 67.2488 130.628C66.045 132.596 63.2325 132.731 61.3875 134.126C58.5188 136.298 58.935 140.978 61.14 143.813C63.345 146.648 66.7538 148.223 69.8363 150.079C88.41 161.273 98.31 185.415 119.156 191.423C130.778 194.775 144.143 191.063 152.378 182.209C160.613 173.355 163.346 159.765 159.173 148.414C161.49 155.749 166.316 164.738 173.899 163.433C175.98 163.073 177.814 161.925 179.67 160.924C190.965 154.838 204.319 153.656 215.895 148.121C227.471 142.586 237.551 129.401 232.613 117.566C229.305 109.658 220.058 105.371 211.496 105.923C202.935 106.474 195.094 110.996 188.535 116.52C161.918 138.908 153.581 175.931 149.014 210.401C147.439 222.326 146.123 234.274 145.065 246.255C144.683 250.575 144.896 255.941 148.778 257.865C152.771 255.041 153.469 249.113 151.669 244.579C149.858 240.034 146.134 236.569 142.455 233.351C135.806 227.546 128.876 221.989 121.238 217.579C99.6938 205.136 71.7375 201.064 57.36 180.758C65.3363 188.07 68.4975 199.095 73.8525 208.5C79.2075 217.905 89.4225 226.624 99.8288 223.643C107.198 221.528 112.35 214.046 119.921 212.843C126.581 211.785 133.163 216.161 136.751 221.865C140.34 227.569 141.566 234.409 142.725 241.058C143.378 244.781 143.996 248.753 142.523 252.229C141.049 255.705 136.605 258.203 133.376 256.245C130.958 254.783 130.249 251.621 130.024 248.798C128.843 233.936 135.278 218.659 146.741 209.141C150.128 206.329 154.178 203.921 158.576 203.899C167.16 203.865 173.066 212.55 175.879 220.661C178.691 228.773 180.469 237.975 187.095 243.443C189.255 245.22 192.045 246.514 194.813 246.075C197.569 245.625 199.74 243.6 201.934 241.879C210.923 234.859 223.14 232.17 234.244 234.769C244.11 237.075 252.728 243.206 262.526 245.771C263.955 246.143 265.541 246.424 266.869 245.76C269.479 244.444 269.231 240.653 268.376 237.851C260.738 212.764 235.256 194.843 209.033 194.246C182.809 193.65 157.361 209.321 144.334 232.08C134.535 249.191 130.654 270.454 115.691 283.29C107.198 290.569 95.9925 294.158 84.8325 294.99C82.47 295.17 79.995 295.215 77.8238 294.248C71.5238 291.458 71.4225 282.683 72.3338 275.843C72.75 272.76 73.1888 269.599 74.7413 266.91C76.305 264.221 79.275 262.118 82.3575 262.534C85.44 262.95 87.8588 266.685 86.295 269.363C84.7313 272.04 79.4438 270.724 79.8825 267.653C82.1663 266.764 85.035 267.889 86.115 270.094" stroke="black" stroke-width="1.5" stroke-miterlimit="10"/>
</svg>
