<svg width="32" height="32" viewBox="0 0 32 32" fill="none" xmlns="http://www.w3.org/2000/svg">
<path d="M16 0.395996C7.16 0.395996 0 7.56 0 16.396C0 23.4667 4.584 29.4627 10.94 31.576C11.74 31.7267 12.0333 31.232 12.0333 30.8067C12.0333 30.4267 12.02 29.42 12.0133 28.0867C7.56267 29.052 6.624 25.94 6.624 25.94C5.896 24.0933 4.844 23.6 4.844 23.6C3.39467 22.608 4.956 22.628 4.956 22.628C6.56267 22.74 7.40667 24.276 7.40667 24.276C8.83333 26.7227 11.152 26.016 12.0667 25.6067C12.2107 24.572 12.6227 23.8667 13.08 23.4667C9.52667 23.0667 5.792 21.6907 5.792 15.56C5.792 13.8133 6.412 12.3867 7.43867 11.2667C7.25867 10.8627 6.71867 9.236 7.57867 7.032C7.57867 7.032 8.91867 6.60266 11.9787 8.672C13.2587 8.316 14.6187 8.14 15.9787 8.132C17.3387 8.14 18.6987 8.316 19.9787 8.672C23.0187 6.60266 24.3587 7.032 24.3587 7.032C25.2187 9.236 24.6787 10.8627 24.5187 11.2667C25.5387 12.3867 26.1587 13.8133 26.1587 15.56C26.1587 21.7067 22.4187 23.06 18.8587 23.4533C19.4187 23.9333 19.9387 24.9147 19.9387 26.4133C19.9387 28.5547 19.9187 30.2747 19.9187 30.7947C19.9187 31.2147 20.1987 31.7147 21.0187 31.5547C27.42 29.456 32 23.456 32 16.396C32 7.56 24.836 0.395996 16 0.395996Z" fill="black"/>
</svg>
