<svg width="343" height="170" viewBox="0 0 343 170" fill="none" xmlns="http://www.w3.org/2000/svg">
<path d="M0.7 65.7C3.1 65.7 4.76667 65.5667 5.7 65.3C6.7 64.9667 7.3 64.4667 7.5 63.8C7.76667 63.0667 7.9 61.8333 7.9 60.1V12.1C7.9 10.3 7.76667 9.03333 7.5 8.29999C7.23333 7.56666 6.6 7.06666 5.6 6.8C4.66667 6.46666 3.03333 6.3 0.7 6.3V3H30.3V6.3C27.9667 6.3 26.3 6.46666 25.3 6.8C24.3 7.06666 23.6667 7.56666 23.4 8.29999C23.2 9.03333 23.1 10.3 23.1 12.1V32.5H49.3V12.1C49.3 10.3 49.1667 9.03333 48.9 8.29999C48.6333 7.56666 48 7.06666 47 6.8C46.0667 6.46666 44.4333 6.3 42.1 6.3V3H71.7V6.3C69.3667 6.3 67.7 6.46666 66.7 6.8C65.7 7.06666 65.0667 7.56666 64.8 8.29999C64.6 9.03333 64.5 10.3 64.5 12.1V60.1C64.5 61.8333 64.6333 63.0667 64.9 63.8C65.2333 64.5333 65.8667 65.0333 66.8 65.3C67.8 65.5667 69.4333 65.7 71.7 65.7V69H42.1V65.7C44.5 65.7 46.1667 65.5667 47.1 65.3C48.1 64.9667 48.7 64.4667 48.9 63.8C49.1667 63.0667 49.3 61.8333 49.3 60.1V36.5H23.1V60.1C23.1 61.8333 23.2333 63.0667 23.5 63.8C23.7667 64.5333 24.3667 65.0333 25.3 65.3C26.3 65.5667 27.9667 65.7 30.3 65.7V69H0.7V65.7ZM79.2156 65.7C81.549 65.7 83.1823 65.5667 84.1156 65.3C85.1156 65.0333 85.749 64.5333 86.0156 63.8C86.349 63.0667 86.5156 61.8333 86.5156 60.1V12.1C86.5156 10.3 86.349 9.03333 86.0156 8.29999C85.6823 7.5 85.0156 6.96666 84.0156 6.7C83.0823 6.43333 81.4823 6.3 79.2156 6.3V3H108.916V6.3C106.649 6.3 105.016 6.43333 104.016 6.7C103.082 6.96666 102.449 7.5 102.116 8.29999C101.849 9.03333 101.716 10.3 101.716 12.1V60.1C101.716 61.9 101.849 63.1667 102.116 63.9C102.449 64.6333 103.082 65.1333 104.016 65.4C105.016 65.6 106.649 65.7 108.916 65.7V69H79.2156V65.7ZM120.923 77.8C122.523 77.5333 124.089 76.9 125.623 75.9C127.223 74.9 128.023 73.6667 128.023 72.2C128.023 71.4667 127.856 70.9667 127.523 70.7C127.189 70.4333 126.589 70.1667 125.723 69.9C121.456 68.7 119.323 66.2 119.323 62.4C119.323 60.2 119.989 58.3667 121.323 56.9C122.723 55.3667 124.589 54.6 126.923 54.6C129.123 54.6 130.989 55.3667 132.523 56.9C134.056 58.4333 134.823 60.9 134.823 64.3C134.823 68.5667 133.623 72.2333 131.223 75.3C128.823 78.4333 125.523 80.3 121.323 80.9L120.923 77.8ZM166.52 65.7C168.854 65.7 170.487 65.5667 171.42 65.3C172.42 65.0333 173.054 64.5333 173.32 63.8C173.654 63.0667 173.82 61.8333 173.82 60.1V12.1C173.82 10.3 173.654 9.03333 173.32 8.29999C172.987 7.5 172.32 6.96666 171.32 6.7C170.387 6.43333 168.787 6.3 166.52 6.3V3H196.22V6.3C193.954 6.3 192.32 6.43333 191.32 6.7C190.387 6.96666 189.754 7.5 189.42 8.29999C189.154 9.03333 189.02 10.3 189.02 12.1V60.1C189.02 61.9 189.154 63.1667 189.42 63.9C189.754 64.6333 190.387 65.1333 191.32 65.4C192.32 65.6 193.954 65.7 196.22 65.7V69H166.52V65.7ZM209.327 23.6C210.994 23.3333 212.594 22.7 214.127 21.7C215.661 20.7 216.427 19.4667 216.427 18C216.427 17.2667 216.227 16.7667 215.827 16.5C215.494 16.2333 214.927 15.9667 214.127 15.7C209.861 14.5 207.727 12 207.727 8.2C207.727 6 208.394 4.16666 209.727 2.7C211.127 1.16666 212.994 0.399995 215.327 0.399995C217.527 0.399995 219.394 1.19999 220.927 2.79999C222.461 4.33333 223.227 6.8 223.227 10.2C223.227 14.4 222.027 18.0667 219.627 21.2C217.227 24.2667 213.927 26.1 209.727 26.7L209.327 23.6ZM233.587 65.7H235.587C237.853 65.7 239.287 65.3667 239.887 64.7C240.553 63.9667 240.887 62.5333 240.887 60.4V12C240.887 10.2667 240.72 9.03333 240.387 8.29999C240.12 7.56666 239.487 7.06666 238.487 6.8C237.487 6.53333 235.82 6.36666 233.487 6.3V3H256.587L274.087 48H274.287L291.587 3H313.687V6.3C311.42 6.36666 309.787 6.53333 308.787 6.8C307.853 7.06666 307.22 7.56666 306.887 8.29999C306.62 9.03333 306.487 10.2667 306.487 12V60.1C306.487 61.7667 306.62 63 306.887 63.8C307.22 64.5333 307.887 65.0333 308.887 65.3C309.887 65.5667 311.487 65.7 313.687 65.7V69H284.587V65.7C286.787 65.7 288.353 65.5667 289.287 65.3C290.22 64.9667 290.82 64.4333 291.087 63.7C291.353 62.9667 291.487 61.7667 291.487 60.1V13.8H291.287L270.987 67.6H265.987L245.287 14.4H245.087V60.4C245.087 61.9333 245.22 63.0667 245.487 63.8C245.753 64.5333 246.253 65.0333 246.987 65.3C247.72 65.5667 248.92 65.7 250.587 65.7H253.587V69H233.587V65.7ZM0.7 165.7C2.9 165.7 4.5 165.567 5.5 165.3C6.5 164.967 7.16667 164.433 7.5 163.7C7.83333 162.9 8 161.7 8 160.1V112.1C8 110.3 7.83333 109.033 7.5 108.3C7.16667 107.5 6.5 106.967 5.5 106.7C4.56667 106.433 2.96667 106.3 0.7 106.3V103H31.8C48 103 56.1 108.067 56.1 118.2C56.1 122.2 54.8333 125.467 52.3 128C49.8333 130.533 46.2 132.3 41.4 133.3V133.4C53.0667 135.4 58.9 141.367 58.9 151.3C58.9 163.1 50.2333 169 32.9 169H0.7V165.7ZM28.2 131.9C32.4667 131.9 35.7 130.8 37.9 128.6C40.1667 126.4 41.3 123.233 41.3 119.1C41.3 110.9 36.9667 106.8 28.3 106.8C26.1 106.8 24.7 107.067 24.1 107.6C23.5 108.067 23.2 109.133 23.2 110.8V131.9H28.2ZM30.2 165.2C38.7333 165.2 43 160.6 43 151.4C43 146.467 41.7333 142.633 39.2 139.9C36.6667 137.167 33.0667 135.8 28.4 135.8H23.2V158.7C23.2 161.167 23.7 162.867 24.7 163.8C25.7 164.733 27.5333 165.2 30.2 165.2ZM65.7391 165.7C68.0724 165.7 69.7057 165.567 70.6391 165.3C71.6391 165.033 72.2724 164.533 72.5391 163.8C72.8724 163.067 73.0391 161.833 73.0391 160.1V112C73.0391 110.267 72.8724 109.033 72.5391 108.3C72.2057 107.5 71.5391 106.967 70.5391 106.7C69.6057 106.433 68.0057 106.3 65.7391 106.3V103H96.5391C112.739 103 120.839 108.4 120.839 119.2C120.839 123.933 119.339 127.7 116.339 130.5C113.339 133.233 109.372 135 104.439 135.8V136C108.572 136.8 111.506 138.333 113.239 140.6C115.039 142.8 116.372 146.233 117.239 150.9L118.139 155.1C118.939 158.9 119.939 161.633 121.139 163.3C122.406 164.9 124.439 165.7 127.239 165.7V169H108.839C107.906 168.267 107.039 167.067 106.239 165.4C105.439 163.733 104.806 161.867 104.339 159.8L101.339 146C100.806 143.467 99.8724 141.567 98.5391 140.3C97.2724 139.033 95.4057 138.4 92.9391 138.4H88.2391V160.1C88.2391 161.767 88.3724 163 88.6391 163.8C88.9724 164.533 89.6057 165.033 90.5391 165.3C91.5391 165.567 93.1057 165.7 95.2391 165.7V169H65.7391V165.7ZM92.3391 134.4C96.8724 134.4 100.206 133.3 102.339 131.1C104.472 128.833 105.539 125.3 105.539 120.5C105.539 115.833 104.506 112.4 102.439 110.2C100.439 107.933 97.2391 106.8 92.8391 106.8C90.9724 106.8 89.7391 107.067 89.1391 107.6C88.5391 108.067 88.2391 109.033 88.2391 110.5V134.4H92.3391ZM185.723 103V106.3C183.257 106.3 181.423 106.733 180.223 107.6C179.09 108.467 177.89 110.167 176.623 112.7L161.523 142.5V160C161.523 161.733 161.69 163 162.023 163.8C162.423 164.533 163.157 165.033 164.223 165.3C165.29 165.567 167.057 165.7 169.523 165.7V169H138.823V165.7C141.29 165.7 143.023 165.567 144.023 165.3C145.09 165.033 145.757 164.533 146.023 163.8C146.357 163 146.523 161.733 146.523 160V143.6L130.423 111.3C129.423 109.3 128.423 107.967 127.423 107.3C126.423 106.633 124.657 106.3 122.123 106.3V103H153.323V106.3H149.023C147.357 106.3 146.523 106.967 146.523 108.3C146.523 109.167 146.79 110.167 147.323 111.3L159.623 137.3H159.823L171.523 112.2C172.057 110.933 172.323 109.933 172.323 109.2C172.323 108.267 172.023 107.567 171.423 107.1C170.823 106.567 170.057 106.3 169.123 106.3H165.423V103H185.723ZM240.05 160.7C240.65 162.233 241.183 163.333 241.65 164C242.183 164.667 242.883 165.133 243.75 165.4C244.617 165.6 245.983 165.7 247.85 165.7V169H217.85V165.7H222.55C224.35 165.7 225.25 164.933 225.25 163.4C225.25 162.8 225.15 162.167 224.95 161.5L219.25 145.6H198.65L192.95 161.8C192.75 162.467 192.65 163.067 192.65 163.6C192.65 164.333 192.85 164.867 193.25 165.2C193.717 165.533 194.483 165.7 195.55 165.7H199.75V169H178.95V165.7C181.683 165.7 183.617 165.367 184.75 164.7C185.883 163.967 186.883 162.467 187.75 160.2L209.75 103H219.25L240.05 160.7ZM217.95 141.9L209.05 117.2H208.75L199.95 141.9H217.95ZM264.148 115.3H263.948V160.5C263.948 162.367 264.315 163.7 265.048 164.5C265.782 165.3 267.082 165.7 268.948 165.7H272.448V169H252.448V165.7H255.048C256.648 165.7 257.815 165.3 258.548 164.5C259.348 163.633 259.748 162.3 259.748 160.5V112C259.748 110.267 259.582 109.033 259.248 108.3C258.982 107.567 258.348 107.067 257.348 106.8C256.348 106.533 254.682 106.367 252.348 106.3V103H274.248L305.248 150.9H305.548V111.1C305.548 107.9 303.848 106.3 300.448 106.3H296.948V103H316.748V106.3H314.348C311.282 106.3 309.748 107.9 309.748 111.1V169.7H299.748L264.148 115.3Z" fill="#191919"/>
<path d="M334.847 169.9C332.78 169.9 330.98 169.167 329.447 167.7C327.98 166.167 327.247 164.367 327.247 162.3C327.247 160.233 327.98 158.433 329.447 156.9C330.98 155.367 332.78 154.6 334.847 154.6C336.98 154.6 338.78 155.367 340.247 156.9C341.78 158.367 342.547 160.167 342.547 162.3C342.547 164.433 341.78 166.233 340.247 167.7C338.78 169.167 336.98 169.9 334.847 169.9Z" fill="#FEC600"/>
</svg>
