<svg width="343" height="377" viewBox="0 0 343 377" fill="none" xmlns="http://www.w3.org/2000/svg">
<path d="M170 143.085C208.522 143.085 239.75 111.101 239.75 71.6475C239.75 32.1936 208.522 0.209961 170 0.209961C131.478 0.209961 100.25 32.1936 100.25 71.6475C100.25 111.101 131.478 143.085 170 143.085Z" fill="#FFEB0D"/>
<path d="M342.496 373.631C319.096 374.554 295.651 374.554 272.251 373.642C265.389 373.372 257.795 372.697 253.115 367.669C248.559 362.775 248.311 355.384 248.322 348.701C248.356 328.665 248.379 308.629 248.413 288.592C248.435 273.349 247.749 256.327 236.848 245.662C232.539 241.444 227.004 238.687 221.345 236.584C202.175 229.44 181.239 229.136 160.775 228.911C155.127 228.855 149.154 228.877 144.294 231.757C134.911 237.326 134.022 250.32 134.236 261.221C134.45 272.584 135.676 285.847 145.272 291.945C149.334 294.521 154.261 295.297 159.065 295.725C171.429 296.839 183.95 296.074 196.077 293.452C198.53 292.924 201.073 292.271 202.985 290.629C204.976 288.919 206.011 286.365 206.877 283.879C208.644 278.839 210.162 273.731 211.366 268.534C213.661 258.634 215.495 248.025 213.144 238.001C210.106 225.019 199.329 213.87 186.211 211.507C173.094 209.145 158.536 216.469 153.598 228.855C148.659 241.241 154.891 257.25 167.3 262.121C169.516 262.987 172.003 263.527 174.264 262.774C176.401 262.065 178.021 260.321 179.405 258.544C189.136 245.899 190.722 228.517 187.707 212.857C184.704 197.186 177.627 182.651 171.361 167.981C159.695 140.644 150.616 112.035 146.938 82.5487C146.341 77.7675 149.3 69.0825 153.024 72.1425C163.981 81.1312 146.285 113.059 135.856 103.462C130.704 98.7262 143.022 91.0987 150.02 90.9412C157.017 90.7837 163.509 94.4175 169.28 98.3775C176.165 103.091 182.859 108.559 191.431 109.56C194.187 109.886 197.022 108.795 198.676 106.567C203.221 100.436 193.513 93.9 187.483 97.0275C181.813 99.9637 179.686 106.894 178.426 113.149C170.202 153.795 174.77 196.534 162.823 236.347C162.193 238.451 160.876 240.33 159.02 241.489C153.519 244.897 148.49 239.711 146.094 234.75C136.948 215.827 142.077 191.28 129.275 174.607C123.999 167.722 116.315 163.189 109.644 157.642C91.8913 142.86 81.35 120.495 78.425 97.5787C76.3663 81.4012 78.0875 64.1325 86.8288 50.3625C94.445 38.37 106.764 29.9775 119.893 24.5325C163.227 6.57748 216.676 13.5075 245.004 50.9025C249.999 57.5062 255.399 72.6712 257.48 80.6812C261.249 95.1712 257.48 110.696 250.955 124.174C244.542 137.415 235.464 149.362 224.416 159.082C216.181 166.339 206.72 172.515 200.51 181.56C192.612 193.08 191.004 207.671 190.228 221.61C189.215 239.745 189.181 257.947 190.137 276.082C190.599 284.756 191.274 293.531 189.665 302.059C188.068 310.541 182.769 315.559 175.524 320.239C169.201 324.322 161 322.106 154.475 318.36C144.373 312.566 153.699 307.74 156.455 306.57C162.462 304.399 168.819 303.285 175.209 303.296C175.231 303.296 175.276 303.296 175.299 303.296C182.24 303.409 197.383 304.005 196.471 321.251C196.258 325.211 194.75 329.036 192.207 332.074C185.637 339.926 174.736 341.805 165.084 340.264C163.486 340.005 162.057 339.004 161.484 337.496C159.976 333.514 165.624 331.354 169.685 331.196C176.176 330.96 183.14 330.825 188.248 335.415C190.7 337.62 192.095 340.871 191.544 344.134C190.722 349.005 186.661 350.535 182.892 351.851C174.849 354.675 156.264 355.069 160.505 347.677C164.184 341.265 175.771 345.787 181.711 350.737C184.715 353.235 186.538 356.981 186.223 360.874C185.728 366.915 180.721 369.739 175.861 371.572C156.961 378.716 134.473 375.42 118.419 363.158C102.748 351.188 94.0625 332.479 82.1825 316.751C70.3025 301.013 51.47 287.074 32.3113 291.731C26.5963 293.115 21.3538 296.107 16.8088 299.831C8.32627 306.795 2.00377 316.931 1.53127 327.889C1.05877 338.846 7.33628 350.31 17.6188 354.124" stroke="black" stroke-width="1.5" stroke-miterlimit="10"/>
</svg>
